<?xml version="1.0" standalone="no"?>
<!DOCTYPE svg PUBLIC "-//W3C//DTD SVG 20010904//EN"
 "http://www.w3.org/TR/2001/REC-SVG-20010904/DTD/svg10.dtd">
<svg version="1.0" xmlns="http://www.w3.org/2000/svg"
 width="1040.000000pt" height="1040.000000pt" viewBox="0 0 1040.000000 1040.000000"
 preserveAspectRatio="xMidYMid meet">
<metadata>
Created by potrace 1.11, written by Peter Selinger 2001-2013
</metadata>
<g transform="translate(0.000000,1040.000000) scale(0.100000,-0.100000)"
fill="#000000" stroke="none">
<path d="M4990 10085 c0 -6 -28 -12 -62 -13 -113 -5 -211 -14 -298 -27 -57 -8
-137 -18 -165 -21 -16 -1 -30 -3 -30 -4 0 -3 -22 -6 -82 -13 -22 -3 -45 -7
-50 -10 -4 -3 -26 -8 -48 -12 -46 -8 -69 -13 -72 -15 -2 -2 -12 -4 -23 -5 -11
-1 -23 -4 -27 -5 -5 -2 -12 -4 -18 -5 -5 -2 -12 -4 -15 -5 -13 -5 -91 -22
-110 -24 -9 -1 -21 -5 -28 -10 -6 -4 -16 -5 -21 -2 -5 4 -11 2 -13 -2 -5 -14
-98 -41 -98 -28 0 8 -2 8 -8 0 -7 -11 -56 -31 -58 -23 0 2 -7 -1 -15 -8 -14
-11 -98 -38 -111 -35 -5 1 -8 -2 -8 -6 0 -9 -73 -36 -97 -37 -7 0 -18 -6 -25
-13 -6 -6 -17 -12 -23 -12 -6 0 -27 -9 -48 -20 -20 -11 -37 -17 -37 -13 0 3
-8 -1 -17 -9 -10 -9 -29 -19 -43 -23 -14 -4 -37 -14 -52 -21 -15 -8 -31 -14
-34 -13 -4 0 -10 -5 -14 -11 -4 -7 -19 -13 -33 -13 -14 -1 -23 -5 -21 -9 6 -9
-32 -29 -40 -21 -3 3 -6 1 -6 -5 0 -7 -4 -12 -10 -12 -5 0 -31 -13 -57 -29
-27 -16 -54 -31 -62 -33 -8 -2 -22 -10 -31 -18 -19 -17 -109 -71 -113 -67 -1
1 -16 -10 -32 -25 -16 -16 -34 -28 -38 -28 -5 0 -14 -6 -21 -12 -8 -7 -24 -20
-36 -28 -12 -8 -28 -21 -36 -27 -7 -7 -17 -13 -23 -13 -6 0 -11 -4 -11 -8 0
-4 -12 -15 -27 -25 -16 -9 -46 -32 -67 -51 -22 -19 -43 -33 -48 -30 -5 3 -7 0
-6 -8 2 -7 -3 -12 -9 -10 -7 1 -13 -3 -13 -9 0 -6 -12 -21 -28 -32 -36 -28
-103 -91 -160 -149 -25 -26 -49 -45 -54 -42 -5 3 -7 1 -6 -4 5 -14 -104 -132
-115 -125 -6 3 -7 1 -3 -6 5 -7 -3 -22 -19 -37 -14 -13 -23 -24 -20 -24 3 0
-7 -12 -22 -27 -16 -16 -39 -45 -52 -66 -13 -22 -35 -50 -48 -63 -13 -13 -21
-24 -17 -24 3 0 1 -7 -6 -15 -7 -8 -16 -12 -21 -9 -5 3 -6 -1 -3 -9 3 -8 -2
-20 -11 -27 -8 -7 -15 -19 -15 -26 0 -8 -4 -14 -9 -14 -5 0 -14 -14 -21 -30
-7 -17 -17 -33 -23 -37 -6 -4 -7 -1 -2 8 5 8 4 11 0 6 -5 -4 -10 -17 -12 -29
-2 -12 -7 -25 -11 -28 -4 -3 -18 -26 -32 -52 -13 -26 -28 -44 -32 -42 -5 3 -8
2 -7 -3 3 -20 -2 -43 -14 -55 -6 -7 -23 -38 -37 -68 -13 -30 -30 -62 -36 -70
-7 -8 -13 -19 -14 -25 -2 -5 -6 -20 -11 -33 -5 -13 -9 -28 -9 -33 0 -5 -4 -9
-8 -9 -4 0 -9 -10 -9 -22 -1 -13 -7 -24 -13 -26 -5 -2 -10 -13 -10 -23 0 -11
-4 -18 -9 -15 -5 4 -7 -4 -3 -16 4 -17 2 -20 -13 -14 -14 5 -16 4 -7 -7 7 -8
9 -17 5 -21 -4 -3 -8 -14 -9 -22 -1 -9 -6 -23 -10 -32 -4 -9 -8 -23 -10 -30
-1 -8 -11 -20 -21 -29 -10 -8 -12 -12 -5 -8 13 7 17 -17 4 -29 -4 -4 -8 -12
-8 -17 -1 -5 -2 -10 -4 -11 -2 -3 -7 -23 -14 -55 -2 -10 -10 -17 -17 -15 -11
3 -11 1 -2 -8 11 -12 7 -33 -14 -90 -4 -8 -5 -19 -4 -24 1 -5 -6 -5 -16 -2
-17 7 -17 6 -1 -10 16 -16 16 -18 0 -31 -9 -8 -11 -12 -5 -8 10 5 11 0 2 -22
-6 -15 -10 -29 -10 -30 4 -15 -1 -33 -8 -29 -5 4 -7 -3 -4 -14 3 -11 -1 -28
-8 -37 -12 -14 -12 -16 0 -8 10 6 12 4 6 -6 -5 -7 -10 -25 -12 -39 -6 -41 -12
-75 -13 -75 -3 0 -10 -51 -11 -78 0 -17 -4 -25 -11 -21 -7 4 -8 2 -4 -5 4 -6
2 -19 -6 -28 -7 -9 -8 -14 -2 -10 7 4 11 -5 11 -23 0 -17 -3 -30 -6 -30 -4 0
-6 -18 -5 -40 0 -21 -2 -37 -6 -35 -3 2 -6 -24 -6 -58 1 -52 -2 -62 -16 -62
-9 0 -20 -4 -25 -8 -4 -5 -3 -8 2 -7 33 7 44 0 36 -22 -4 -13 -6 -28 -4 -35 3
-8 -3 -11 -18 -8 -12 2 -18 1 -15 -3 4 -4 13 -7 19 -7 8 0 11 -21 9 -65 -3
-90 -4 -92 -19 -86 -8 3 -11 1 -8 -4 3 -6 13 -10 21 -10 15 0 19 -12 7 -24
-11 -10 -12 -85 -2 -92 5 -3 5 -13 -1 -24 -6 -11 -6 -21 -1 -24 5 -3 5 -21 1
-41 -5 -24 -4 -35 4 -35 6 0 4 -5 -4 -10 -8 -5 -10 -10 -4 -10 16 0 12 -63 -6
-86 -14 -18 -14 -18 3 -5 15 12 17 11 18 -10 3 -51 8 -85 24 -171 3 -12 0 -16
-8 -13 -7 4 -5 1 4 -7 8 -7 15 -25 14 -40 -1 -16 2 -28 8 -28 5 0 4 -7 -3 -15
-11 -13 -15 -13 -21 -3 -7 10 -9 9 -9 -4 0 -21 11 -23 29 -5 11 10 12 8 6 -10
-3 -13 -2 -23 4 -23 5 0 9 -13 9 -29 -1 -15 3 -34 8 -42 12 -20 14 -40 3 -33
-5 3 -9 0 -9 -5 0 -6 8 -11 18 -11 15 -1 15 -2 -3 -17 -18 -14 -18 -15 -2 -9
13 4 17 2 14 -6 -2 -7 -10 -12 -16 -10 -7 1 -10 -2 -6 -7 3 -6 11 -8 18 -5 7
2 13 -4 14 -16 1 -11 -2 -18 -6 -15 -5 2 -15 -3 -22 -13 -11 -14 -11 -15 1 -5
9 9 19 9 32 2 16 -9 17 -13 6 -27 -10 -12 -10 -14 0 -8 11 7 17 -10 13 -41 -1
-7 3 -13 9 -13 6 0 10 -6 8 -12 -1 -7 3 -28 11 -45 7 -19 10 -40 6 -50 -13
-29 -14 -43 -4 -43 6 0 9 6 7 13 -2 7 1 12 7 12 5 0 9 -4 7 -9 -1 -4 3 -15 10
-24 11 -13 11 -15 -2 -8 -10 5 -9 3 2 -6 9 -8 22 -37 29 -64 7 -27 17 -53 23
-57 7 -5 3 -7 -10 -4 -12 2 -21 -1 -21 -8 0 -7 8 -10 17 -8 11 3 20 -3 23 -14
4 -10 11 -28 17 -41 6 -15 6 -21 0 -17 -6 3 -7 -1 -4 -9 3 -9 10 -13 15 -10 5
3 9 0 9 -5 0 -6 0 -13 0 -16 0 -3 11 -29 24 -59 13 -30 22 -57 18 -60 -3 -3 0
-6 6 -6 6 0 9 -13 7 -32 -3 -23 -2 -29 5 -18 5 8 12 12 15 8 4 -3 -1 -19 -11
-35 -18 -28 -18 -28 2 -10 20 17 21 16 32 -9 9 -18 9 -23 1 -18 -8 4 -8 0 0
-15 7 -11 14 -21 17 -21 3 0 2 6 -2 13 -4 7 -3 9 2 4 5 -5 10 -13 10 -18 1 -5
3 -11 4 -14 1 -3 3 -8 4 -12 1 -5 5 -14 9 -20 5 -9 3 -11 -6 -7 -8 3 -14 -1
-14 -9 0 -9 7 -12 17 -10 12 3 19 -4 25 -24 3 -15 6 -29 6 -30 -1 -2 8 -12 19
-23 12 -12 18 -25 15 -30 -3 -5 -1 -11 5 -15 5 -3 10 -11 10 -16 0 -6 -5 -7
-12 -3 -7 4 -8 3 -4 -4 4 -7 15 -12 24 -12 15 -1 15 -2 -2 -15 -18 -13 -17
-14 8 -21 24 -6 31 -15 27 -36 0 -5 4 -8 10 -8 5 0 7 -5 4 -10 -3 -6 1 -13 10
-16 14 -6 14 -9 -1 -33 -9 -14 -13 -23 -9 -19 4 4 14 0 22 -10 13 -15 13 -15
3 6 -6 13 -7 22 -1 22 13 0 24 -37 15 -51 -4 -7 -3 -9 4 -5 14 8 25 -10 16
-26 -13 -21 -12 -46 3 -41 16 6 17 20 1 25 -9 3 -9 6 1 12 8 5 14 1 18 -13 3
-12 9 -21 14 -21 5 0 9 -4 9 -10 0 -5 -6 -7 -14 -4 -8 3 -17 1 -20 -4 -3 -5 2
-9 11 -8 20 1 82 -85 90 -126 3 -17 10 -25 17 -21 6 4 5 -1 -3 -10 -12 -15
-12 -17 3 -11 11 4 16 1 16 -10 0 -9 5 -16 11 -16 5 0 7 -5 4 -10 -4 -6 -10
-8 -14 -6 -4 3 -13 0 -21 -5 -11 -6 -5 -8 17 -4 34 5 56 -15 45 -44 -3 -8 0
-11 7 -7 6 4 11 1 11 -8 0 -8 -5 -18 -12 -22 -16 -10 20 -34 40 -26 15 5 15 4
3 -11 -11 -14 -11 -17 0 -17 19 -1 52 -47 39 -55 -5 -3 -6 -13 -3 -23 6 -14 4
-15 -9 -4 -13 11 -16 10 -14 -5 0 -10 -5 -17 -12 -15 -8 1 -11 -2 -7 -8 9 -14
57 20 51 36 -3 8 -1 14 4 14 6 0 10 -4 10 -9 0 -5 6 -16 13 -23 11 -13 18 -24
50 -81 6 -12 17 -26 22 -30 6 -5 0 -5 -13 -2 -13 4 -22 2 -22 -5 0 -6 4 -9 9
-5 5 3 16 -1 24 -9 8 -8 17 -12 21 -9 3 4 6 -1 6 -10 0 -9 11 -28 25 -43 17
-18 22 -31 16 -38 -6 -7 -6 -17 1 -26 8 -12 9 -12 4 3 -3 9 -1 17 4 17 6 0 10
-7 10 -16 0 -8 4 -13 8 -10 4 2 9 -5 9 -17 2 -18 0 -19 -8 -7 -9 13 -10 13 -6
0 2 -8 11 -14 19 -12 19 3 50 -42 38 -54 -5 -5 -5 -15 1 -24 9 -13 10 -12 5 3
-3 9 -1 17 4 17 6 0 10 -7 10 -16 0 -8 5 -12 11 -8 7 4 6 -2 -2 -17 -12 -23
-11 -23 6 -9 17 14 17 14 7 -7 -10 -19 -9 -20 8 -16 12 3 20 0 20 -6 0 -7 -5
-9 -12 -5 -9 5 -9 3 1 -9 7 -9 17 -14 22 -11 5 3 6 -3 2 -12 -4 -11 -3 -15 5
-10 12 7 38 -32 33 -53 -1 -7 2 -10 8 -7 5 4 13 1 17 -5 4 -8 3 -9 -4 -5 -7 4
-12 2 -12 -3 0 -6 5 -11 11 -11 5 0 7 -6 3 -12 -5 -8 -1 -8 12 2 10 8 16 11
12 6 -4 -4 2 -17 12 -29 11 -11 17 -24 14 -28 -2 -4 2 -11 9 -16 23 -14 53
-67 55 -97 2 -32 17 -47 38 -39 6 2 20 -9 30 -26 10 -17 22 -31 27 -31 5 0 4
-6 -2 -14 -8 -10 -9 -16 -1 -21 6 -3 8 -11 4 -16 -3 -6 -12 -3 -21 8 -8 10
-12 12 -8 6 3 -7 0 -13 -7 -14 -7 0 -4 -4 7 -8 27 -11 50 6 34 26 -10 11 -9
12 5 7 21 -8 20 -22 -1 -48 -18 -21 -18 -21 3 -4 30 26 34 23 28 -25 -4 -23
-3 -39 0 -36 3 3 7 17 8 32 3 31 23 20 32 -19 4 -14 11 -22 16 -19 6 3 10 -1
10 -9 0 -20 -5 -20 -24 0 -9 8 -16 10 -16 4 0 -6 7 -13 15 -16 8 -4 12 -11 8
-18 -3 -6 -1 -6 8 1 18 17 29 16 29 -3 0 -8 4 -13 9 -10 5 3 14 -8 21 -24 7
-16 17 -27 23 -23 6 3 7 1 3 -5 -4 -6 -13 -9 -21 -5 -8 3 -15 1 -15 -5 0 -6
11 -9 25 -8 40 5 48 -48 10 -71 -25 -15 -11 -17 17 -2 18 10 20 9 14 -7 -6
-18 -5 -18 8 -1 18 23 29 22 21 -3 -4 -12 -2 -20 5 -20 6 0 8 5 5 10 -3 6 -1
10 4 10 6 0 11 -6 11 -13 0 -6 12 -24 28 -38 15 -14 34 -39 42 -55 8 -16 23
-35 33 -42 17 -13 25 -38 8 -27 -10 6 -24 -11 -27 -32 -1 -7 3 -16 8 -20 6 -3
8 -1 5 4 -4 6 4 11 18 11 21 -1 23 -3 14 -22 -10 -20 -9 -20 5 -2 16 20 13 38
-7 35 -24 -3 -40 1 -33 8 14 14 35 11 52 -9 15 -16 16 -23 6 -39 -7 -10 -8
-19 -3 -19 5 0 12 7 15 17 6 14 8 14 21 -3 8 -10 15 -23 15 -28 0 -6 -7 -1
-15 10 -15 18 -15 18 -8 0 4 -13 3 -17 -5 -12 -8 5 -10 2 -5 -9 3 -9 9 -13 12
-8 9 12 41 16 41 5 0 -5 11 -22 25 -38 14 -16 41 -47 60 -69 19 -22 35 -46 35
-52 0 -7 5 -13 10 -13 6 0 10 -5 10 -12 0 -9 -3 -9 -12 0 -15 15 -28 15 -28 1
0 -5 4 -8 9 -4 5 3 12 1 15 -4 4 -5 2 -12 -4 -16 -5 -3 -10 -11 -10 -18 0 -6
7 -1 16 11 19 27 34 28 34 2 0 -12 7 -20 16 -20 9 0 14 -6 11 -13 -3 -7 1 -21
9 -32 8 -10 14 -14 14 -9 0 6 -3 14 -7 20 -5 5 2 -1 15 -13 26 -26 25 -40 -3
-66 -20 -18 -19 -18 7 -2 24 15 29 15 48 2 12 -9 17 -18 11 -21 -5 -4 -12 -2
-16 4 -3 5 -12 10 -18 10 -7 0 -4 -6 5 -14 10 -7 14 -17 10 -22 -4 -4 1 -2 10
5 15 11 22 10 45 -10 15 -12 20 -19 11 -16 -13 5 -15 2 -11 -11 6 -15 5 -16
-13 -2 -17 14 -18 13 -7 -1 7 -9 9 -20 5 -24 -4 -5 -2 -5 4 -2 7 4 15 0 18 -9
3 -8 10 -13 15 -9 5 3 12 -5 14 -17 5 -21 5 -20 4 2 -1 14 -6 23 -11 22 -11
-5 -26 19 -20 30 3 4 10 8 15 8 6 0 7 -5 4 -10 -3 -6 4 -14 17 -19 13 -6 19
-10 14 -10 -5 -1 5 -14 24 -31 28 -25 31 -32 20 -45 -7 -8 -17 -15 -23 -15 -5
0 -2 10 9 23 l19 22 -22 -19 c-28 -23 -28 -23 -2 -37 12 -6 19 -7 15 -1 -3 5
1 13 10 16 23 9 26 8 18 -6 -5 -8 -2 -9 10 -5 12 5 16 3 14 -5 -3 -7 -11 -13
-19 -14 -8 0 -18 -2 -23 -2 -11 -3 14 -32 27 -32 6 0 2 6 -9 14 -18 14 -18 15
6 14 31 -2 50 -15 50 -35 0 -10 -7 -14 -18 -11 -10 3 -19 0 -19 -6 0 -6 11
-12 24 -13 55 -6 63 -8 63 -14 0 -4 18 -27 39 -50 33 -37 38 -47 29 -64 -6
-11 -7 -17 -3 -13 5 4 15 2 24 -5 14 -11 14 -10 2 5 -21 28 -5 21 24 -9 28
-31 32 -45 11 -37 -8 3 -16 1 -19 -3 -3 -5 3 -9 13 -10 11 -1 22 3 26 8 3 6
11 3 19 -8 9 -12 10 -22 4 -30 -7 -7 -6 -14 2 -19 8 -4 9 -3 5 4 -4 7 -2 12 3
12 6 0 11 -5 11 -11 0 -5 4 -8 8 -5 8 5 12 -9 13 -49 0 -15 2 -17 9 -6 4 8 6
21 3 30 -3 12 -2 12 7 -2 6 -9 9 -21 5 -26 -3 -5 -1 -12 4 -15 4 -3 7 -20 5
-37 -2 -18 -1 -29 2 -26 11 10 11 51 1 65 -6 8 -6 12 2 12 6 0 14 -12 17 -26
5 -19 9 -22 15 -12 7 11 9 11 9 -1 0 -7 10 -22 21 -32 19 -16 20 -21 8 -36 -8
-9 -9 -14 -2 -10 6 4 13 4 16 0 2 -5 2 -2 1 4 -2 7 -1 13 2 13 9 0 53 -55 54
-67 0 -6 4 -15 10 -18 6 -4 7 1 4 12 -5 15 -4 15 4 3 7 -9 7 -19 2 -25 -6 -8
-5 -18 4 -30 12 -16 13 -17 19 -1 4 9 3 14 -2 11 -5 -3 -13 0 -16 6 -5 7 0 10
11 7 14 -2 19 -12 19 -35 1 -37 10 -51 19 -28 3 9 2 13 -4 10 -6 -3 -10 -1
-10 4 0 13 17 14 25 2 8 -14 -16 -61 -29 -54 -6 3 -7 2 -3 -2 12 -14 36 -14
31 -1 -2 6 2 20 11 31 10 14 14 15 13 5 -2 -8 3 -14 10 -12 6 1 11 -4 10 -10
-2 -7 4 -12 12 -10 8 2 12 0 8 -4 -4 -4 0 -13 10 -21 10 -9 11 -11 2 -7 -13 7
-13 5 -1 -9 7 -9 17 -15 21 -12 8 5 28 -15 28 -29 0 -5 12 -16 27 -26 27 -18
22 -31 -13 -36 -8 -2 -17 -5 -20 -8 -3 -4 4 -5 16 -3 12 2 24 6 28 10 11 11
55 -25 49 -41 -3 -9 0 -12 8 -9 8 3 22 -4 32 -15 12 -15 13 -19 3 -16 -8 3
-25 0 -39 -8 -13 -7 -19 -13 -14 -13 6 -1 16 3 24 8 18 12 43 2 34 -13 -4 -6
1 -5 10 3 9 7 17 9 17 4 0 -16 47 -62 56 -55 5 4 2 -1 -5 -11 -7 -9 -10 -17
-5 -17 5 0 1 -5 -9 -11 -33 -19 -48 20 -16 43 11 8 11 9 -3 4 -17 -5 -23 5
-19 28 1 5 -5 4 -13 -3 -12 -10 -16 -9 -25 6 -6 10 -10 14 -10 8 0 -5 6 -19
14 -29 11 -14 15 -16 15 -5 0 11 2 12 9 1 5 -8 7 -27 6 -43 -2 -18 1 -26 8
-22 7 4 8 -1 3 -13 -7 -18 -6 -18 10 -2 15 15 19 15 40 2 15 -10 24 -12 29 -5
9 16 25 13 25 -5 0 -8 4 -13 9 -10 5 3 14 0 20 -8 12 -14 5 -46 -13 -58 -7 -5
-6 -8 2 -8 8 0 16 9 19 20 3 11 10 20 15 20 11 0 6 -33 -7 -42 -5 -4 -6 -10
-2 -15 11 -10 28 18 19 32 -7 12 23 -11 54 -42 15 -15 18 -25 11 -32 -7 -7 -7
-14 1 -24 8 -9 8 -17 1 -24 -17 -17 9 -27 28 -11 15 11 16 11 10 -4 -3 -10 -2
-18 3 -18 5 0 9 11 8 25 -2 22 -4 23 -18 10 -19 -18 -39 -20 -22 -3 7 7 8 17
1 30 -13 24 6 25 20 0 5 -9 13 -16 18 -14 4 1 8 -4 8 -10 0 -7 5 -13 10 -13
17 0 54 -37 49 -49 -2 -6 9 -17 26 -24 16 -8 29 -17 29 -20 -3 -19 2 -33 10
-28 4 3 16 -1 26 -8 14 -10 15 -15 5 -21 -9 -6 -11 -4 -5 5 5 8 4 11 -3 6 -5
-3 -12 -2 -14 3 -1 5 -12 3 -23 -6 -20 -15 -20 -15 2 -9 12 4 24 2 27 -3 4 -6
13 -8 21 -4 21 7 19 -6 -4 -25 -12 -11 -17 -23 -13 -34 7 -17 8 -16 19 2 11
17 10 19 -5 14 -11 -4 -9 1 7 14 22 18 25 18 41 3 9 -9 14 -22 12 -30 -4 -10
0 -13 10 -8 21 7 53 -27 42 -45 -11 -16 -15 -42 -6 -33 4 4 7 12 7 18 1 7 6
11 13 9 7 -1 11 3 10 9 -2 6 3 14 10 16 8 3 10 -2 6 -14 -5 -14 -4 -15 4 -3 8
10 7 18 0 28 -6 7 -7 12 -2 10 5 -2 33 22 62 51 48 50 55 54 74 42 17 -10 22
-10 32 4 11 15 13 15 25 1 8 -9 18 -16 24 -16 6 0 2 7 -9 15 -10 8 -15 15 -10
15 4 0 1 12 -9 26 -16 24 -16 26 2 39 10 7 22 11 27 7 5 -3 7 2 3 12 -4 9 -3
15 2 11 5 -3 11 0 13 7 2 6 9 8 16 4 8 -5 5 -13 -9 -27 -23 -23 -21 -41 4 -45
9 -1 15 2 11 7 -3 5 -10 6 -16 3 -8 -5 -9 -1 -5 10 4 10 7 20 7 22 0 3 5 2 10
-1 9 -6 14 8 11 28 -1 7 13 10 39 8 11 -1 10 1 -3 10 -13 8 -22 8 -32 -1 -8
-6 -16 -7 -19 -2 -3 6 4 12 16 15 12 4 19 9 15 13 -4 4 1 13 11 20 14 11 21 9
40 -8 12 -12 23 -18 23 -15 1 4 2 13 3 20 1 6 7 11 14 9 7 -1 12 2 12 8 0 14
-11 12 -31 -6 -16 -14 -18 -14 -27 3 -8 15 -2 24 29 48 21 17 38 35 39 41 0 6
12 16 26 23 15 6 24 15 20 18 -7 7 13 33 26 33 5 0 6 -5 2 -12 -4 -6 -3 -8 3
-5 6 4 14 0 17 -9 9 -24 7 -34 -5 -32 -6 2 -14 -4 -16 -12 -3 -10 -2 -11 4 -4
4 6 16 10 25 8 10 -1 21 3 25 8 3 7 1 8 -5 4 -7 -4 -12 -3 -12 3 0 5 -3 17 -7
26 -5 15 -3 16 18 6 22 -11 23 -11 5 3 -10 8 -16 22 -13 30 4 10 1 13 -8 10
-8 -3 -11 -13 -8 -22 4 -14 3 -15 -5 -3 -8 11 -4 21 14 38 30 27 42 30 23 5
-13 -15 -12 -16 3 -4 14 11 18 10 27 -5 6 -10 11 -14 11 -10 0 4 -7 19 -16 32
-11 17 -12 25 -5 25 7 0 9 5 5 12 -4 7 -3 8 5 4 6 -4 9 -11 7 -14 -2 -4 2 -18
11 -32 10 -17 12 -19 8 -5 -13 39 -13 51 1 69 7 11 20 16 28 13 15 -6 43 29
33 40 -3 2 -8 -5 -12 -16 -3 -12 -11 -19 -16 -15 -5 3 3 18 18 34 16 15 39 42
52 58 15 19 30 28 39 24 9 -3 13 -1 9 5 -4 6 6 25 22 42 15 16 27 32 25 34 -2
1 5 3 16 4 11 1 22 -7 25 -18 4 -11 9 -18 12 -15 3 3 -1 16 -10 29 -14 22 -14
26 7 52 16 20 28 26 40 22 11 -4 14 -12 10 -19 -5 -8 -1 -8 12 2 29 22 30 24
12 17 -9 -3 -22 1 -29 9 -11 13 -10 15 2 14 26 -4 39 0 39 11 0 8 -5 8 -15 -1
-29 -24 -15 -1 28 44 48 52 59 55 81 24 9 -12 16 -19 16 -14 0 16 -37 55 -46
48 -5 -4 -2 1 5 11 8 10 21 15 28 12 9 -3 13 0 11 7 -6 16 16 38 36 38 9 0 16
5 16 11 0 5 -5 7 -10 4 -14 -9 -13 3 2 19 7 7 20 11 29 9 9 -3 23 4 31 16 8
12 18 18 21 14 4 -3 7 -4 7 0 0 3 -7 13 -16 21 -8 9 -11 16 -6 16 5 0 15 -7
22 -15 7 -8 16 -15 21 -15 5 0 -1 10 -12 21 l-22 22 22 11 c12 7 19 15 16 18
-7 6 16 15 54 23 22 4 61 24 48 25 -5 0 -18 -5 -29 -11 -18 -10 -20 -9 -14 7
6 18 5 18 -8 2 -7 -10 -17 -18 -21 -18 -5 0 0 9 10 20 11 12 27 18 41 16 13
-3 28 2 35 11 11 12 10 17 -5 25 -16 9 -16 11 3 27 11 10 17 22 13 27 -4 4 1
2 11 -6 22 -17 36 -2 31 36 -1 13 1 22 6 19 4 -3 11 2 14 11 8 20 47 15 64 -9
7 -9 17 -17 22 -17 5 0 -2 12 -15 26 l-24 26 21 18 c16 13 18 19 8 25 -9 6
-11 4 -5 -5 6 -9 4 -11 -5 -5 -8 5 -11 4 -7 -2 4 -6 0 -14 -9 -17 -9 -3 -12
-11 -8 -18 5 -10 4 -10 -6 -1 -10 9 -7 17 14 40 14 15 26 31 26 34 0 16 34 18
50 4 16 -14 18 -14 31 2 12 16 12 17 -2 6 -13 -11 -19 -9 -34 7 -10 11 -13 20
-7 20 6 0 14 -5 17 -10 8 -13 25 -3 25 13 0 8 -3 8 -9 -1 -6 -10 -11 -9 -22 4
-8 10 -9 15 -3 11 6 -3 17 5 24 18 7 14 20 25 27 25 8 0 11 5 7 11 -4 7 -1 10
7 7 8 -3 13 -11 11 -17 -2 -9 3 -9 19 -1 19 11 19 13 5 34 -11 17 -12 26 -3
35 13 13 41 15 33 2 -3 -5 6 -17 20 -26 15 -9 24 -12 20 -7 -3 6 0 13 6 16 9
4 8 5 -2 5 -30 -2 -41 1 -35 10 3 5 1 12 -5 16 -6 4 -5 13 3 25 17 29 26 24
22 -11 -3 -18 -2 -29 2 -25 3 3 7 16 9 29 4 33 5 34 15 12 l9 -20 -3 20 c-2
11 -9 19 -15 17 -25 -5 -10 20 24 40 24 14 33 26 29 36 -7 18 43 74 58 65 5
-3 -1 -11 -13 -18 -15 -8 -19 -15 -11 -19 6 -4 11 -2 11 4 0 6 4 9 10 5 5 -3
7 -12 4 -19 -3 -8 -1 -16 3 -19 10 -6 9 70 0 80 -8 8 19 33 35 33 9 -1 7 -5
-4 -14 -10 -7 -18 -17 -18 -21 0 -4 6 -2 14 4 11 10 16 8 21 -9 4 -12 9 -19
12 -17 2 3 -1 15 -7 28 -11 20 -10 21 6 16 14 -5 14 -3 -3 9 -22 16 -33 42
-13 29 6 -3 10 1 10 9 0 22 19 29 37 14 9 -7 14 -8 10 -2 -4 7 0 15 9 18 9 4
14 9 11 13 -4 3 -13 0 -22 -7 -9 -8 -15 -8 -15 -2 0 6 5 14 10 17 6 4 7 12 3
18 -4 7 5 4 20 -6 15 -9 27 -13 27 -7 0 5 -4 10 -10 10 -5 0 -10 6 -10 13 0
19 51 78 61 71 5 -3 6 2 3 10 -3 9 -3 16 0 16 4 0 11 -12 17 -27 9 -25 11 -25
26 -10 14 14 15 19 4 29 -11 10 -12 10 -7 1 4 -7 4 -18 0 -25 -5 -8 -10 -6
-15 8 -11 28 -10 37 7 59 13 17 16 18 24 5 7 -10 10 -11 10 -2 0 7 12 17 26
22 20 8 24 13 15 24 -6 7 -7 17 -3 21 4 5 1 5 -6 1 -9 -5 -10 -12 -3 -20 7 -8
2 -15 -15 -23 -30 -14 -30 -6 -1 31 14 17 28 26 36 22 6 -4 9 -11 6 -16 -3 -5
-1 -11 4 -15 6 -3 8 3 6 15 -4 22 9 35 25 25 8 -5 8 -11 1 -19 -8 -9 -7 -13 4
-13 8 0 13 3 10 5 -3 3 1 12 8 20 8 11 8 14 0 9 -6 -4 -14 -3 -18 2 -3 5 3 14
12 20 10 6 14 11 10 11 -5 0 -22 -9 -37 -20 -16 -11 -31 -16 -34 -11 -4 5 2
12 13 16 11 3 25 13 33 23 12 15 11 16 -4 3 -12 -9 -18 -10 -18 -2 0 16 33 27
38 13 2 -7 8 -12 13 -12 5 0 2 11 -7 25 -9 15 -13 25 -8 24 21 -4 28 2 14 11
-13 8 -12 10 3 10 9 0 17 7 17 15 0 8 5 15 11 15 5 0 8 -4 4 -9 -3 -6 5 -15
17 -21 19 -9 21 -9 8 2 -22 19 -23 43 -3 59 16 13 17 12 4 -3 -9 -12 -10 -18
-2 -18 6 0 12 6 12 13 1 6 2 17 4 22 1 6 3 16 3 23 1 6 7 12 13 12 6 0 8 -9 3
-22 -9 -30 -1 -21 19 21 14 27 14 31 2 21 -13 -11 -14 -10 -9 3 3 9 17 17 32
19 18 2 26 9 27 25 1 13 -3 20 -9 17 -6 -3 -3 1 6 9 10 8 15 17 11 20 -3 4 1
7 10 7 9 0 19 5 23 12 5 7 2 9 -7 4 -8 -4 -6 -1 4 7 10 9 18 18 18 21 -3 20 1
26 16 26 15 0 14 -2 -3 -15 -10 -8 -14 -15 -8 -15 20 0 35 25 22 38 -9 9 -8
12 5 12 16 0 22 -12 17 -35 -1 -5 2 -6 6 -2 15 15 12 36 -7 42 -18 6 -18 7 0
27 11 11 24 17 30 13 6 -3 11 -2 11 4 0 5 -6 12 -12 14 -10 4 -10 6 0 6 7 1
10 6 7 11 -3 6 -1 11 4 11 6 1 17 2 24 3 6 1 17 -5 23 -13 9 -11 12 -12 19 -1
5 9 4 11 -3 6 -7 -4 -12 -1 -12 9 0 11 -5 15 -15 11 -8 -3 -15 -1 -15 5 0 5 7
12 15 15 8 4 12 11 8 17 -4 6 -1 7 7 2 10 -6 12 -4 7 7 -3 9 4 26 16 39 12 13
22 26 22 29 0 11 49 70 58 70 5 0 4 -7 -3 -14 -9 -11 -9 -19 0 -33 10 -16 10
-16 5 4 -4 15 0 25 12 32 10 6 12 11 6 11 -15 0 -18 30 -3 30 6 0 9 5 8 11 -2
6 3 14 10 16 8 3 10 -2 6 -14 -5 -14 -4 -15 4 -3 8 10 7 19 -1 29 -9 12 -9 13
0 8 8 -5 15 1 19 18 3 13 10 22 15 19 5 -3 9 4 9 16 0 11 7 23 15 26 8 4 13
10 10 14 -2 4 4 15 15 25 11 10 20 24 20 32 0 7 5 13 10 13 6 0 10 7 10 15 0
9 7 18 15 21 8 4 13 9 11 13 -3 4 -1 13 5 21 6 10 9 11 9 3 0 -7 4 -13 10 -13
5 0 6 7 3 17 -5 12 -3 14 8 8 12 -8 12 -6 0 8 -7 9 -9 17 -4 17 4 0 17 16 27
35 21 39 30 43 45 18 6 -10 11 -14 11 -9 0 5 -7 18 -17 28 -9 11 -11 18 -5 18
7 0 12 6 12 14 0 22 19 30 35 16 8 -7 15 -9 15 -5 0 4 -8 14 -17 22 -10 8 -12
11 -4 7 10 -5 13 -3 8 9 -3 9 3 25 16 39 20 22 51 76 50 88 0 3 10 16 23 30
13 13 24 19 24 12 0 -6 5 -12 12 -12 6 0 4 8 -6 19 -15 17 -15 19 -1 25 9 3
14 10 10 15 -3 5 0 13 6 17 8 4 9 3 5 -4 -11 -18 0 -14 15 5 8 10 9 14 2 10
-6 -4 -14 -3 -18 3 -3 5 1 10 9 10 8 0 18 5 22 12 5 7 3 8 -6 3 -9 -6 -11 -4
-6 4 5 7 14 10 22 7 8 -3 14 -1 14 3 0 5 -6 11 -12 14 -7 2 -9 8 -5 13 5 5 15
1 23 -10 8 -11 14 -15 14 -9 0 7 -4 15 -10 18 -14 8 -13 21 3 37 14 13 17 21
17 38 0 6 5 10 11 10 8 0 7 -5 -1 -15 -11 -13 -10 -14 4 -9 18 7 20 16 6 30
-7 7 -5 17 4 30 14 18 15 18 10 -6 l-5 -25 11 23 c5 13 8 28 4 33 -3 5 0 9 5
9 6 0 11 -5 11 -12 0 -6 3 -8 6 -5 4 4 2 13 -5 21 -9 11 -8 17 3 29 8 8 12 17
9 21 -4 3 -1 6 6 6 7 0 9 5 6 10 -3 6 -1 10 4 10 15 0 7 -40 -9 -50 -8 -5 -11
-12 -6 -17 7 -7 28 19 32 42 1 6 5 19 9 30 5 14 4 16 -3 6 -7 -10 -11 -10 -17
-1 -4 7 1 14 15 17 16 4 18 8 8 14 -10 7 -9 9 5 9 9 0 17 5 17 11 0 5 -5 7
-11 4 -12 -8 11 36 24 46 5 3 8 9 8 13 -3 19 0 26 10 26 8 0 7 -5 -1 -16 -11
-12 -11 -15 0 -12 7 2 15 -3 18 -11 2 -8 0 -11 -5 -8 -5 3 -15 1 -23 -4 -11
-7 -9 -8 9 -6 28 4 38 21 20 33 -8 5 -4 11 12 21 22 13 22 13 2 8 -25 -7 -42
12 -19 21 9 3 14 10 11 14 -3 5 -1 11 5 15 5 3 10 16 11 28 0 21 1 21 10 2 8
-17 9 -16 5 8 -2 17 3 35 13 45 9 10 12 12 7 5 -5 -7 -5 -13 0 -13 5 0 3 -4
-5 -9 -9 -6 -10 -11 -2 -15 6 -4 12 -2 12 3 3 21 4 26 12 38 4 6 3 14 -2 17
-12 8 10 56 25 56 7 0 15 7 18 16 6 15 4 15 -11 3 -15 -12 -15 -11 1 14 10 15
15 27 11 27 -4 0 -2 7 5 15 17 21 24 12 10 -14 -6 -12 -8 -21 -6 -21 3 0 10 9
16 21 8 15 8 24 0 34 -9 10 -7 16 7 23 10 5 25 7 33 5 13 -4 13 -3 0 6 -8 5
-18 7 -24 4 -5 -4 -7 1 -3 11 4 10 7 20 7 22 0 12 19 1 23 -13 3 -10 4 -6 4 9
-1 15 -4 25 -8 22 -4 -2 -2 9 4 26 6 16 15 30 20 30 4 0 6 -4 3 -8 -2 -4 5 -9
16 -9 21 -2 21 -2 -1 13 -18 13 -20 18 -9 31 7 9 11 18 10 20 -2 3 0 8 4 11 4
4 4 1 -1 -7 -6 -10 -4 -12 4 -7 9 6 9 11 1 21 -12 15 3 31 19 20 5 -3 13 -1
16 5 4 6 1 9 -7 8 -17 -4 -13 43 5 57 7 6 11 18 9 28 -2 9 2 17 8 17 6 0 8 -6
4 -12 -5 -10 -3 -10 7 0 11 11 11 14 1 21 -11 7 -11 11 0 22 7 8 13 20 14 27
2 29 5 33 17 26 7 -5 6 0 -3 11 -14 17 -13 18 3 12 11 -4 20 -1 23 8 3 7 12
11 19 9 7 -3 15 -1 19 4 3 5 -4 8 -15 7 -11 -1 -24 -7 -29 -14 -6 -10 -9 -10
-15 -1 -8 13 -8 12 20 29 15 9 16 11 3 7 -10 -3 -18 -1 -18 4 0 6 5 10 10 10
6 0 10 9 10 19 0 20 25 35 42 24 7 -3 8 -1 4 6 -4 7 -17 9 -29 6 -17 -5 -19
-4 -7 4 8 5 11 13 7 17 -4 4 1 13 11 21 9 8 11 11 4 8 -10 -5 -10 1 2 28 8 20
11 39 8 43 -4 4 1 4 10 1 10 -3 22 1 30 11 12 15 11 16 -4 4 -21 -17 -33 1
-18 28 6 11 8 26 4 32 -5 8 -1 9 12 4 15 -6 16 -4 7 5 -7 7 -9 19 -3 34 5 13
6 26 3 29 -4 3 -1 6 6 6 7 0 10 4 6 9 -3 6 3 14 12 20 17 10 17 10 -2 11 -17
1 -18 2 -5 13 9 7 14 19 12 28 -1 8 7 21 20 27 l23 12 -23 -6 c-22 -5 -23 -4
-11 18 7 12 12 24 11 26 -7 9 0 32 8 27 6 -3 10 -1 10 4 0 6 -6 11 -12 11 -9
0 -8 4 2 10 13 9 13 10 0 10 -9 1 -6 6 10 16 14 8 17 13 8 10 -10 -3 -18 -1
-18 4 0 6 4 10 8 10 5 0 8 18 6 40 -1 22 1 40 4 40 4 0 8 26 10 58 4 86 7 106
15 120 5 7 3 12 -5 12 -9 0 -9 3 2 10 8 5 11 10 6 10 -5 0 -2 8 5 17 8 9 9 14
3 10 -12 -7 -11 33 0 52 4 5 1 13 -4 16 -7 5 -5 12 7 22 10 8 12 12 6 8 -7 -3
-13 -3 -14 2 0 4 -2 16 -4 26 -2 9 1 17 6 17 6 0 7 5 3 12 -13 20 -13 188 0
188 7 0 7 3 1 8 -19 14 -26 71 -11 91 7 10 8 13 1 9 -7 -4 -11 14 -13 48 -1
31 -4 60 -7 65 -4 5 0 9 7 9 10 0 10 2 -1 9 -9 6 -12 20 -9 40 3 17 0 31 -6
31 -6 0 -6 4 1 11 9 9 8 18 -4 35 -12 19 -13 24 -2 24 11 0 11 2 -1 10 -10 6
-11 10 -2 10 6 0 12 5 12 11 0 5 -4 7 -10 4 -6 -3 -7 1 -4 9 3 9 2 16 -2 16
-5 0 -10 26 -12 57 -1 32 -8 61 -15 65 -7 4 -7 8 -2 8 6 0 11 9 11 19 0 11 -4
17 -9 14 -6 -3 -8 8 -5 26 2 17 0 31 -5 31 -5 0 -7 11 -5 25 3 13 1 22 -3 19
-5 -3 -10 6 -10 20 -3 47 -4 51 -10 56 -11 8 -14 54 -5 68 5 8 3 11 -5 10 -12
-3 -32 59 -23 73 2 4 0 9 -6 11 -5 1 -11 15 -12 31 -1 15 -5 27 -9 27 -4 0 -9
12 -11 28 -3 15 -9 36 -13 46 -7 15 -5 18 6 12 8 -5 8 -2 -2 6 -9 7 -15 21
-13 31 1 9 -2 15 -7 11 -9 -5 -13 9 -10 34 1 6 -2 12 -7 12 -15 0 -21 37 -8
50 8 8 7 10 -5 5 -12 -5 -18 2 -22 24 -4 17 -6 33 -4 35 1 1 -4 10 -12 19 -7
10 -10 17 -7 17 4 0 0 7 -8 16 -9 8 -14 20 -11 25 4 5 3 9 -2 9 -13 0 -45 88
-37 101 4 7 3 9 -4 5 -6 -3 -13 3 -17 14 -3 11 -11 20 -17 20 -6 0 -8 3 -5 7
4 3 1 13 -6 21 -10 13 -9 15 3 8 9 -4 8 -2 -2 7 -10 8 -15 17 -11 20 3 4 1 7
-5 7 -7 0 -12 4 -12 10 0 5 -13 31 -29 58 -22 38 -26 53 -18 61 9 9 8 11 -5 6
-13 -5 -20 0 -27 16 -5 13 -6 28 -3 33 3 5 0 6 -5 3 -10 -6 -20 6 -21 26 0 5
-11 17 -23 28 -12 10 -18 19 -14 19 4 0 0 9 -9 19 -10 11 -15 25 -11 31 3 6 1
9 -5 8 -7 -2 -20 9 -29 23 -25 41 -84 122 -98 137 -7 8 -10 18 -7 24 4 6 3 8
-3 5 -5 -3 -17 3 -26 14 -9 10 -15 19 -12 19 3 0 -11 16 -30 36 -19 20 -32 40
-29 45 3 5 0 8 -8 7 -7 -2 -12 3 -11 10 2 6 -1 12 -7 12 -5 0 -20 11 -34 25
-14 14 -23 25 -20 25 3 0 -1 6 -8 14 -7 8 -16 12 -20 9 -5 -2 -8 2 -8 9 0 7
-9 19 -20 26 -12 7 -18 18 -14 24 4 7 3 8 -4 4 -7 -4 -12 -1 -12 9 0 9 -4 14
-9 11 -4 -3 -24 11 -44 32 -48 50 -126 122 -132 122 -6 0 -47 35 -93 78 -18
17 -37 32 -41 32 -4 0 -23 13 -42 30 -19 16 -39 34 -46 40 -7 5 -17 10 -23 10
-5 0 -10 3 -10 8 0 4 -10 12 -22 17 -13 6 -22 16 -21 23 2 6 -3 9 -11 6 -8 -3
-25 5 -38 18 -13 13 -30 24 -38 26 -8 2 -16 8 -18 13 -2 5 -7 9 -12 9 -4 0
-54 27 -109 60 -56 33 -106 60 -111 60 -6 0 -10 5 -10 11 0 5 -4 8 -9 4 -6 -3
-14 3 -20 12 -6 10 -11 15 -11 10 0 -4 -19 3 -42 15 -24 12 -46 21 -50 20 -5
-1 -8 2 -8 8 0 6 -3 10 -7 9 -16 -2 -53 14 -53 22 0 5 -3 8 -7 7 -15 -4 -53
13 -53 23 0 6 -4 8 -9 4 -6 -3 -26 4 -47 15 -20 12 -39 19 -42 16 -3 -3 -10
-2 -16 3 -16 13 -136 61 -136 54 0 -3 -6 -1 -13 5 -7 6 -25 13 -41 16 -15 3
-34 10 -42 17 -8 6 -14 9 -14 6 0 -3 -16 1 -35 9 -19 8 -37 14 -40 14 -22 0
-25 1 -20 9 3 6 -4 8 -16 6 -12 -3 -27 -1 -33 3 -6 4 -14 7 -18 8 -5 1 -10 3
-13 4 -9 4 -25 7 -46 9 -11 0 -18 5 -15 9 2 4 -7 7 -22 7 -15 -1 -33 3 -39 8
-7 5 -20 7 -28 3 -8 -3 -15 -2 -15 2 0 4 -11 9 -26 10 -14 1 -33 6 -42 11 -9
5 -35 11 -57 15 -52 7 -128 23 -132 26 -2 2 -12 4 -23 5 -11 1 -21 3 -22 4 -2
1 -19 4 -38 6 -19 1 -69 8 -110 15 -113 18 -177 25 -330 36 -47 3 -91 11 -99
17 -10 8 -13 9 -8 1 4 -7 -2 -11 -18 -11 -16 0 -22 4 -18 11 5 8 3 8 -8 0 -16
-12 -48 -12 -66 -1 -8 5 -13 3 -13 -4 0 -8 -4 -8 -15 1 -11 9 -15 9 -15 1 0
-7 -4 -9 -10 -6 -20 12 -50 14 -50 2 0 -8 -3 -8 -11 0 -8 8 -20 8 -34 3 -13
-5 -26 -6 -29 -3 -9 10 -76 9 -76 -1 0 -5 -6 -3 -14 3 -10 8 -16 9 -21 1 -4
-7 -12 -7 -25 0 -13 7 -21 7 -26 -1 -4 -8 -9 -7 -15 2 -5 8 -9 9 -9 4z m-2817
-6101 c11 -11 -3 -24 -18 -18 -8 4 -12 10 -9 15 6 11 18 12 27 3z m577 -889
c0 -8 5 -15 11 -15 5 0 7 -5 4 -10 -4 -6 -10 -8 -14 -5 -13 7 -21 45 -10 45 5
0 9 -7 9 -15z m4785 -225 c3 -5 -1 -10 -10 -10 -9 0 -13 5 -10 10 3 6 8 10 10
10 2 0 7 -4 10 -10z m-4481 -191 c-3 -5 -10 -7 -15 -3 -5 3 -7 10 -3 15 3 5
10 7 15 3 5 -3 7 -10 3 -15z m3886 -553 c0 -2 -7 -7 -16 -10 -8 -3 -12 -2 -9
4 6 10 25 14 25 6z m-126 -172 c4 -10 1 -14 -6 -12 -15 5 -23 28 -10 28 5 0
13 -7 16 -16z m-2981 -228 c4 -10 1 -13 -8 -9 -8 3 -12 9 -9 14 7 12 11 11 17
-5z m2737 -40 c0 -3 -4 -8 -10 -11 -5 -3 -10 -1 -10 4 0 6 5 11 10 11 6 0 10
-2 10 -4z m-55 -75 c3 -5 1 -12 -5 -16 -5 -3 -10 0 -10 7 0 10 -2 10 -9 -1 -5
-8 -11 -9 -15 -3 -3 6 0 13 6 15 20 8 26 8 33 -2z m-161 -165 c-5 -14 -34 -31
-34 -20 0 8 24 33 32 34 4 0 5 -6 2 -14z m-1658 -671 c4 -8 11 -12 18 -8 6 4
5 0 -2 -9 -8 -9 -20 -14 -28 -11 -17 6 -19 23 -1 23 8 0 7 4 -3 10 -10 7 -11
10 -2 10 7 0 15 -7 18 -15z m718 -341 c3 -8 2 -13 -3 -10 -5 3 -14 -1 -21 -10
-15 -17 -32 -1 -23 23 7 18 40 17 47 -3z"/>
<path d="M8910 7806 c0 -2 7 -7 16 -10 8 -3 12 -2 9 4 -6 10 -25 14 -25 6z"/>
<path d="M1310 6781 c0 -6 4 -13 10 -16 6 -3 7 1 4 9 -7 18 -14 21 -14 7z"/>
<path d="M9126 6718 c3 -5 10 -6 15 -3 13 9 11 12 -6 12 -8 0 -12 -4 -9 -9z"/>
<path d="M1296 6698 c3 -5 10 -6 15 -3 13 9 11 12 -6 12 -8 0 -12 -4 -9 -9z"/>
<path d="M9169 6443 c-13 -16 -12 -17 4 -4 9 7 17 15 17 17 0 8 -8 3 -21 -13z"/>
<path d="M1296 6358 c3 -5 10 -6 15 -3 13 9 11 12 -6 12 -8 0 -12 -4 -9 -9z"/>
<path d="M1297 6293 c-10 -9 -9 -23 1 -23 5 0 9 7 9 15 0 17 -1 18 -10 8z"/>
<path d="M9126 6123 c-6 -14 -5 -15 5 -6 7 7 10 15 7 18 -3 3 -9 -2 -12 -12z"/>
<path d="M1316 5998 c3 -5 10 -6 15 -3 13 9 11 12 -6 12 -8 0 -12 -4 -9 -9z"/>
<path d="M9113 5974 c0 -9 4 -11 12 -4 7 5 14 9 16 7 2 -1 3 0 1 2 -7 11 -29
7 -29 -5z"/>
<path d="M9135 5949 c-4 -6 -5 -12 -2 -15 2 -3 7 2 10 11 7 17 1 20 -8 4z"/>
<path d="M9081 5833 c-1 -17 16 -25 25 -12 4 7 3 9 -4 5 -5 -3 -13 0 -15 6 -4
9 -6 10 -6 1z"/>
<path d="M1356 5753 c-6 -14 -5 -15 5 -6 7 7 10 15 7 18 -3 3 -9 -2 -12 -12z"/>
<path d="M9075 5759 c-3 -4 2 -6 10 -5 21 3 28 13 10 13 -9 0 -18 -4 -20 -8z"/>
<path d="M9073 5727 c0 -8 6 -14 14 -14 9 0 10 4 2 14 -6 7 -12 13 -14 13 -1
0 -2 -6 -2 -13z"/>
<path d="M1370 5719 c0 -5 5 -7 10 -4 6 3 10 8 10 11 0 2 -4 4 -10 4 -5 0 -10
-5 -10 -11z"/>
<path d="M9050 5678 c0 -4 4 -8 9 -8 6 0 12 4 15 8 3 5 -1 9 -9 9 -8 0 -15 -4
-15 -9z"/>
<path d="M1345 5640 c-3 -6 1 -7 9 -4 18 7 21 14 7 14 -6 0 -13 -4 -16 -10z"/>
<path d="M9035 5640 c-3 -5 -1 -10 4 -10 6 0 11 5 11 10 0 6 -2 10 -4 10 -3 0
-8 -4 -11 -10z"/>
<path d="M1375 5620 c3 -5 8 -10 11 -10 2 0 4 5 4 10 0 6 -5 10 -11 10 -5 0
-7 -4 -4 -10z"/>
<path d="M9050 5616 c0 -2 8 -10 18 -17 15 -13 16 -12 3 4 -13 16 -21 21 -21
13z"/>
<path d="M9015 5571 c-3 -5 -2 -12 3 -15 5 -3 9 1 9 9 0 17 -3 19 -12 6z"/>
<path d="M1420 5531 c0 -6 4 -13 10 -16 6 -3 7 1 4 9 -7 18 -14 21 -14 7z"/>
<path d="M1395 5500 c3 -5 8 -10 11 -10 2 0 4 5 4 10 0 6 -5 10 -11 10 -5 0
-7 -4 -4 -10z"/>
<path d="M9011 5484 c0 -11 3 -14 6 -6 3 7 2 16 -1 19 -3 4 -6 -2 -5 -13z"/>
<path d="M8995 5440 c3 -5 8 -10 11 -10 2 0 4 5 4 10 0 6 -5 10 -11 10 -5 0
-7 -4 -4 -10z"/>
<path d="M8974 5418 c-4 -7 -4 -10 1 -6 4 4 15 2 24 -5 14 -11 14 -10 2 6 -16
20 -18 21 -27 5z"/>
<path d="M8956 5361 c-3 -5 2 -15 12 -22 15 -13 16 -12 4 3 -10 13 -10 17 0
21 9 4 9 6 1 6 -6 1 -14 -3 -17 -8z"/>
<path d="M1435 5351 c-3 -5 -2 -12 3 -15 5 -3 9 1 9 9 0 17 -3 19 -12 6z"/>
<path d="M1390 5336 c0 -2 8 -10 18 -17 15 -13 16 -12 3 4 -13 16 -21 21 -21
13z"/>
<path d="M1473 5306 c0 -15 22 -15 34 0 4 5 4 6 -1 2 -5 -4 -14 -3 -21 2 -8 7
-12 5 -12 -4z"/>
<path d="M1510 5281 c0 -6 4 -12 8 -15 5 -3 9 1 9 9 0 8 -4 15 -9 15 -4 0 -8
-4 -8 -9z"/>
<path d="M1495 5249 c-4 -6 -5 -12 -2 -15 2 -3 7 2 10 11 7 17 1 20 -8 4z"/>
<path d="M8931 5244 c0 -11 3 -14 6 -6 3 7 2 16 -1 19 -3 4 -6 -2 -5 -13z"/>
<path d="M1475 5211 c-3 -5 -2 -12 3 -15 5 -3 9 1 9 9 0 17 -3 19 -12 6z"/>
<path d="M8910 5216 c0 -2 8 -10 18 -17 15 -13 16 -12 3 4 -13 16 -21 21 -21
13z"/>
<path d="M8935 5140 c3 -5 8 -10 11 -10 2 0 4 5 4 10 0 6 -5 10 -11 10 -5 0
-7 -4 -4 -10z"/>
<path d="M8895 5119 c-4 -6 -5 -12 -2 -15 2 -3 7 2 10 11 7 17 1 20 -8 4z"/>
<path d="M1588 5053 c6 -2 10 -8 8 -12 -3 -4 1 -8 9 -8 11 0 12 4 4 14 -6 7
-17 13 -23 12 -7 0 -6 -2 2 -6z"/>
<path d="M8859 5033 c-13 -16 -12 -17 4 -4 9 7 17 15 17 17 0 8 -8 3 -21 -13z"/>
<path d="M8833 4998 c1 -7 -5 -11 -13 -10 -8 2 -11 0 -7 -4 15 -15 33 -11 34
7 1 11 -2 19 -8 19 -5 0 -8 -6 -6 -12z"/>
<path d="M1589 4983 c-13 -16 -12 -17 4 -4 16 13 21 21 13 21 -2 0 -10 -8 -17
-17z"/>
<path d="M1626 4987 c3 -10 9 -15 12 -12 3 3 0 11 -7 18 -10 9 -11 8 -5 -6z"/>
<path d="M8773 4805 c0 -8 4 -12 9 -9 5 3 6 10 3 15 -9 13 -12 11 -12 -6z"/>
<path d="M1627 4779 c7 -7 15 -10 18 -7 3 3 -2 9 -12 12 -14 6 -15 5 -6 -5z"/>
<path d="M1710 4782 c0 -5 7 -9 15 -9 8 0 12 4 9 9 -3 4 -9 8 -15 8 -5 0 -9
-4 -9 -8z"/>
<path d="M1697 4739 c7 -7 15 -10 18 -7 3 3 -2 9 -12 12 -14 6 -15 5 -6 -5z"/>
<path d="M8736 4733 c-6 -14 -5 -15 5 -6 7 7 10 15 7 18 -3 3 -9 -2 -12 -12z"/>
<path d="M8686 4707 c3 -10 9 -15 12 -12 3 3 0 11 -7 18 -10 9 -11 8 -5 -6z"/>
<path d="M1726 4702 c-3 -5 1 -9 9 -9 8 0 12 4 9 9 -3 4 -7 8 -9 8 -2 0 -6 -4
-9 -8z"/>
<path d="M1752 4681 c-11 -7 -11 -9 0 -14 9 -3 15 1 15 9 0 8 -1 14 -1 14 -1
0 -7 -4 -14 -9z"/>
<path d="M8699 4673 c-13 -16 -12 -17 4 -4 9 7 17 15 17 17 0 8 -8 3 -21 -13z"/>
<path d="M1757 4632 c-14 -15 -15 -19 -2 -19 8 0 12 4 9 8 -2 4 0 10 5 13 5 4
12 2 16 -4 3 -5 11 -10 16 -10 6 0 4 7 -5 15 -18 19 -19 19 -39 -3z"/>
<path d="M8670 4641 c0 -6 4 -12 8 -15 5 -3 9 1 9 9 0 8 -4 15 -9 15 -4 0 -8
-4 -8 -9z"/>
<path d="M8667 4599 c7 -7 15 -10 18 -7 3 3 -2 9 -12 12 -14 6 -15 5 -6 -5z"/>
<path d="M1784 4576 c10 -8 15 -20 10 -27 -4 -8 -3 -10 4 -5 18 11 14 24 -10
36 -22 10 -22 10 -4 -4z"/>
<path d="M8652 4560 c0 -14 2 -19 5 -12 2 6 2 18 0 25 -3 6 -5 1 -5 -13z"/>
<path d="M1795 4520 c-3 -5 -1 -10 4 -10 6 0 11 5 11 10 0 6 -2 10 -4 10 -3 0
-8 -4 -11 -10z"/>
<path d="M1835 4509 c-4 -6 -5 -12 -2 -15 2 -3 7 2 10 11 7 17 1 20 -8 4z"/>
<path d="M1856 4502 c-2 -4 -1 -14 4 -22 7 -11 9 -9 7 8 -1 24 -3 26 -11 14z"/>
<path d="M1868 4453 c6 -2 9 -10 6 -15 -4 -7 -2 -8 5 -4 13 9 5 26 -12 25 -9
0 -8 -2 1 -6z"/>
<path d="M8626 4442 c-3 -5 1 -9 9 -9 8 0 15 4 15 9 0 4 -4 8 -9 8 -6 0 -12
-4 -15 -8z"/>
<path d="M8575 4420 c-3 -5 -1 -10 4 -10 6 0 11 5 11 10 0 6 -2 10 -4 10 -3 0
-8 -4 -11 -10z"/>
<path d="M1898 4363 c5 -21 7 -23 10 -9 2 10 0 22 -6 28 -6 6 -7 0 -4 -19z"/>
<path d="M8536 4382 c-3 -5 1 -9 9 -9 8 0 12 4 9 9 -3 4 -7 8 -9 8 -2 0 -6 -4
-9 -8z"/>
<path d="M1866 4362 c-3 -5 1 -9 9 -9 8 0 12 4 9 9 -3 4 -7 8 -9 8 -2 0 -6 -4
-9 -8z"/>
<path d="M8560 4360 c-9 -6 -10 -10 -3 -10 6 0 15 5 18 10 8 12 4 12 -15 0z"/>
<path d="M8525 4319 c-4 -6 -5 -12 -2 -15 2 -3 7 2 10 11 7 17 1 20 -8 4z"/>
<path d="M8505 4260 c-3 -6 1 -7 9 -4 18 7 21 14 7 14 -6 0 -13 -4 -16 -10z"/>
<path d="M1933 4236 c-3 -6 -2 -8 2 -3 5 4 16 0 26 -9 11 -10 19 -12 24 -4 4
6 1 9 -7 8 -7 -2 -12 2 -11 8 1 6 -5 11 -13 11 -8 0 -18 -5 -21 -11z"/>
<path d="M1990 4203 c0 -12 17 -26 36 -29 7 -1 9 6 7 17 -3 10 -9 19 -14 19
-5 0 -6 -8 -3 -17 5 -15 3 -15 -10 1 -9 11 -16 15 -16 9z"/>
<path d="M8470 4200 c0 -5 5 -10 11 -10 5 0 7 5 4 10 -3 6 -8 10 -11 10 -2 0
-4 -4 -4 -10z"/>
<path d="M8435 4181 c-3 -5 -2 -12 3 -15 5 -3 9 1 9 9 0 17 -3 19 -12 6z"/>
<path d="M8400 4155 c-7 -9 -11 -17 -9 -20 3 -2 10 5 17 15 14 24 10 26 -8 5z"/>
<path d="M8456 4155 c-9 -26 -7 -32 5 -12 6 10 9 21 6 23 -2 3 -7 -2 -11 -11z"/>
<path d="M1950 4141 c0 -6 4 -13 10 -16 6 -3 7 1 4 9 -7 18 -14 21 -14 7z"/>
<path d="M2030 4140 c0 -5 5 -10 10 -10 6 0 10 5 10 10 0 6 -4 10 -10 10 -5 0
-10 -4 -10 -10z"/>
<path d="M8410 4130 c-6 -11 -8 -20 -6 -20 3 0 10 9 16 20 6 11 8 20 6 20 -3
0 -10 -9 -16 -20z"/>
<path d="M8375 4079 c-4 -6 -4 -13 -1 -16 3 -4 6 -1 6 6 0 7 5 9 12 5 7 -4 8
-3 4 4 -9 15 -13 15 -21 1z"/>
<path d="M2103 4053 c-15 -5 -17 -23 -4 -23 5 0 11 7 15 15 3 8 4 15 3 14 -1
0 -8 -3 -14 -6z"/>
<path d="M8350 4046 c0 -2 7 -7 16 -10 8 -3 12 -2 9 4 -6 10 -25 14 -25 6z"/>
<path d="M2050 4026 c0 -2 7 -7 16 -10 8 -3 12 -2 9 4 -6 10 -25 14 -25 6z"/>
<path d="M2113 4001 c0 -11 5 -18 9 -15 4 3 5 11 1 19 -7 21 -12 19 -10 -4z"/>
<path d="M8310 4001 c0 -6 4 -12 8 -15 5 -3 9 1 9 9 0 8 -4 15 -9 15 -4 0 -8
-4 -8 -9z"/>
<path d="M2113 3951 c0 -11 5 -18 9 -15 4 3 5 11 1 19 -7 21 -12 19 -10 -4z"/>
<path d="M2140 3940 c0 -5 5 -10 11 -10 5 0 7 5 4 10 -3 6 -8 10 -11 10 -2 0
-4 -4 -4 -10z"/>
<path d="M8310 3941 c0 -6 4 -13 10 -16 6 -3 7 1 4 9 -7 18 -14 21 -14 7z"/>
<path d="M8247 3914 c-10 -13 -14 -24 -9 -24 6 0 13 7 16 16 3 8 10 13 15 9 5
-3 13 0 17 6 4 7 3 9 -4 5 -5 -3 -12 -2 -14 3 -1 5 -11 -2 -21 -15z"/>
<path d="M2135 3901 c-4 -7 1 -8 12 -4 15 6 16 4 6 -8 -10 -13 -10 -16 1 -16
16 0 15 29 -1 34 -6 2 -14 -1 -18 -6z"/>
<path d="M2188 3893 c6 -2 10 -9 7 -14 -4 -5 1 -6 10 -2 13 5 14 7 3 14 -7 5
-17 8 -23 8 -5 0 -4 -3 3 -6z"/>
<path d="M8255 3879 c-4 -6 -4 -13 -1 -16 3 -4 6 -1 6 7 0 10 4 10 18 -1 15
-13 16 -12 3 4 -16 20 -18 20 -26 6z"/>
<path d="M8203 3840 c-3 -11 -10 -17 -16 -13 -6 3 -7 1 -3 -6 4 -6 11 -9 15
-6 10 5 22 45 14 45 -3 0 -7 -9 -10 -20z"/>
<path d="M8225 3840 c-3 -6 1 -7 9 -4 18 7 21 14 7 14 -6 0 -13 -4 -16 -10z"/>
<path d="M2230 3819 c0 -5 4 -8 9 -5 9 6 26 -22 22 -37 -1 -5 3 -6 9 -2 6 4 4
15 -6 31 -17 25 -34 32 -34 13z"/>
<path d="M2236 3787 c3 -10 9 -15 12 -12 3 3 0 11 -7 18 -10 9 -11 8 -5 -6z"/>
<path d="M2196 3782 c-3 -4 4 -9 15 -9 23 -2 25 3 4 10 -8 4 -16 3 -19 -1z"/>
<path d="M2281 3754 c0 -11 3 -14 6 -6 3 7 2 16 -1 19 -3 4 -6 -2 -5 -13z"/>
<path d="M8200 3766 c0 -2 8 -10 18 -17 15 -13 16 -12 3 4 -13 16 -21 21 -21
13z"/>
<path d="M2255 3740 c-3 -5 -1 -10 4 -10 6 0 11 5 11 10 0 6 -2 10 -4 10 -3 0
-8 -4 -11 -10z"/>
<path d="M8150 3740 c0 -5 5 -10 10 -10 6 0 10 5 10 10 0 6 -4 10 -10 10 -5 0
-10 -4 -10 -10z"/>
<path d="M8200 3715 c-7 -9 -11 -17 -9 -20 3 -2 10 5 17 15 14 24 10 26 -8 5z"/>
<path d="M2270 3700 c0 -5 5 -10 11 -10 5 0 7 5 4 10 -3 6 -8 10 -11 10 -2 0
-4 -4 -4 -10z"/>
<path d="M8115 3700 c3 -5 8 -10 11 -10 2 0 4 5 4 10 0 6 -5 10 -11 10 -5 0
-7 -4 -4 -10z"/>
<path d="M8100 3686 c0 -2 8 -10 18 -17 15 -13 16 -12 3 4 -13 16 -21 21 -21
13z"/>
<path d="M2310 3660 c0 -6 7 -10 15 -10 8 0 15 2 15 4 0 2 -7 6 -15 10 -8 3
-15 1 -15 -4z"/>
<path d="M8087 3663 c-3 -5 1 -19 8 -33 l14 -25 -3 28 c-3 30 -11 43 -19 30z"/>
<path d="M2295 3620 c3 -5 8 -10 11 -10 2 0 4 5 4 10 0 6 -5 10 -11 10 -5 0
-7 -4 -4 -10z"/>
<path d="M2370 3620 c0 -5 5 -10 11 -10 5 0 7 5 4 10 -3 6 -8 10 -11 10 -2 0
-4 -4 -4 -10z"/>
<path d="M8116 3602 c-3 -5 1 -9 9 -9 8 0 12 4 9 9 -3 4 -7 8 -9 8 -2 0 -6 -4
-9 -8z"/>
<path d="M8030 3570 c-8 -5 -10 -10 -5 -10 6 0 17 5 25 10 8 5 11 10 5 10 -5
0 -17 -5 -25 -10z"/>
<path d="M2350 3558 c0 -6 6 -8 14 -5 8 3 17 2 20 -4 2 -5 3 -4 2 2 -3 15 -36
21 -36 7z"/>
<path d="M8015 3540 c3 -5 8 -10 11 -10 2 0 4 5 4 10 0 6 -5 10 -11 10 -5 0
-7 -4 -4 -10z"/>
<path d="M2426 3515 c-11 -8 -15 -15 -9 -15 6 0 16 7 23 15 16 19 11 19 -14 0z"/>
<path d="M8000 3521 c0 -6 4 -13 10 -16 6 -3 7 1 4 9 -7 18 -14 21 -14 7z"/>
<path d="M2450 3500 c0 -5 5 -10 11 -10 5 0 7 5 4 10 -3 6 -8 10 -11 10 -2 0
-4 -4 -4 -10z"/>
<path d="M7969 3493 c-13 -16 -12 -17 4 -4 9 7 17 15 17 17 0 8 -8 3 -21 -13z"/>
<path d="M8011 3474 c0 -11 3 -14 6 -6 3 7 2 16 -1 19 -3 4 -6 -2 -5 -13z"/>
<path d="M2430 3466 c0 -2 7 -7 16 -10 8 -3 12 -2 9 4 -6 10 -25 14 -25 6z"/>
<path d="M7972 3465 c4 -4 0 -14 -10 -21 -9 -7 -15 -14 -12 -17 3 -2 13 4 23
13 15 14 16 20 5 26 -7 4 -10 4 -6 -1z"/>
<path d="M2415 3440 c3 -5 8 -10 11 -10 2 0 4 5 4 10 0 6 -5 10 -11 10 -5 0
-7 -4 -4 -10z"/>
<path d="M2455 3430 c-3 -6 1 -7 9 -4 18 7 21 14 7 14 -6 0 -13 -4 -16 -10z"/>
<path d="M2456 3401 c-4 -5 3 -7 14 -4 23 6 26 13 6 13 -8 0 -17 -4 -20 -9z"/>
<path d="M7920 3395 c-7 -9 -10 -18 -6 -22 3 -3 6 0 6 8 0 12 2 11 11 -1 9
-13 10 -13 6 2 -3 9 -1 19 6 22 8 3 8 5 1 5 -6 1 -17 -6 -24 -14z"/>
<path d="M7965 3400 c3 -5 8 -10 11 -10 2 0 4 5 4 10 0 6 -5 10 -11 10 -5 0
-7 -4 -4 -10z"/>
<path d="M2470 3385 c0 -7 30 -13 34 -7 3 4 -4 9 -15 9 -10 1 -19 0 -19 -2z"/>
<path d="M2508 3343 c6 -3 10 -9 7 -13 -3 -5 0 -12 7 -16 7 -4 10 -4 6 1 -4 4
-4 13 2 19 6 8 2 12 -13 13 -12 0 -16 -1 -9 -4z"/>
<path d="M2550 3330 c0 -5 5 -10 10 -10 6 0 10 5 10 10 0 6 -4 10 -10 10 -5 0
-10 -4 -10 -10z"/>
<path d="M7891 3327 c2 -1 13 -9 24 -17 19 -14 19 -14 6 3 -7 9 -18 17 -24 17
-6 0 -8 -1 -6 -3z"/>
<path d="M2493 3305 c0 -8 4 -12 9 -9 5 3 6 10 3 15 -9 13 -12 11 -12 -6z"/>
<path d="M2552 3294 c10 -10 20 -16 22 -13 3 3 -5 11 -17 18 -21 13 -21 12 -5
-5z"/>
<path d="M7883 3295 c-3 -9 -3 -18 -1 -21 3 -3 8 4 11 16 6 23 -1 27 -10 5z"/>
<path d="M2564 3262 c4 -3 14 -7 22 -8 9 -1 13 0 10 4 -4 3 -14 7 -22 8 -9 1
-13 0 -10 -4z"/>
<path d="M7804 3258 c-13 -20 -13 -37 -1 -45 7 -3 9 -3 5 2 -4 4 0 14 10 21
13 9 14 16 6 24 -9 9 -14 8 -20 -2z m16 -8 c0 -5 -5 -10 -11 -10 -5 0 -7 5 -4
10 3 6 8 10 11 10 2 0 4 -4 4 -10z"/>
<path d="M2584 3224 c-18 -14 -18 -14 6 -3 31 14 36 19 24 19 -6 0 -19 -7 -30
-16z"/>
<path d="M2630 3236 c0 -2 8 -10 18 -17 15 -13 16 -12 3 4 -13 16 -21 21 -21
13z"/>
<path d="M7835 3231 c-3 -5 -2 -12 3 -15 5 -3 9 1 9 9 0 17 -3 19 -12 6z"/>
<path d="M7869 3223 c-13 -16 -12 -17 4 -4 9 7 17 15 17 17 0 8 -8 3 -21 -13z"/>
<path d="M2617 3201 c-3 -13 -1 -18 9 -14 7 2 10 11 7 19 -7 19 -10 18 -16 -5z"/>
<path d="M7759 3193 c-7 -10 -9 -15 -5 -11 5 4 15 3 23 -3 9 -9 13 -8 13 0 0
6 -6 11 -12 11 -9 0 -8 4 2 10 8 5 10 10 4 10 -6 0 -18 -8 -25 -17z"/>
<path d="M2655 3180 c3 -5 11 -10 16 -10 6 0 7 5 4 10 -3 6 -11 10 -16 10 -6
0 -7 -4 -4 -10z"/>
<path d="M7810 3180 c-9 -6 -10 -10 -3 -10 6 0 15 5 18 10 8 12 4 12 -15 0z"/>
<path d="M2627 3153 c3 -7 8 -13 12 -13 4 0 8 6 8 13 0 8 -6 14 -13 14 -7 0
-10 -6 -7 -14z"/>
<path d="M7766 3157 c3 -10 9 -15 12 -12 3 3 0 11 -7 18 -10 9 -11 8 -5 -6z"/>
<path d="M2665 3149 c-4 -6 -4 -13 -1 -16 3 -4 6 -1 6 5 0 6 8 13 18 15 15 4
15 5 0 6 -9 0 -20 -4 -23 -10z"/>
<path d="M7793 3145 c0 -8 4 -12 9 -9 5 3 6 10 3 15 -9 13 -12 11 -12 -6z"/>
<path d="M7750 3141 c0 -6 4 -13 10 -16 6 -3 7 1 4 9 -7 18 -14 21 -14 7z"/>
<path d="M2702 3120 c0 -14 2 -19 5 -12 2 6 2 18 0 25 -3 6 -5 1 -5 -13z"/>
<path d="M2676 3093 c-6 -14 -5 -15 5 -6 7 7 10 15 7 18 -3 3 -9 -2 -12 -12z"/>
<path d="M7770 3099 c0 -5 5 -7 10 -4 6 3 10 8 10 11 0 2 -4 4 -10 4 -5 0 -10
-5 -10 -11z"/>
<path d="M2636 3078 c3 -5 10 -6 15 -3 13 9 11 12 -6 12 -8 0 -12 -4 -9 -9z"/>
<path d="M7721 3074 c0 -11 3 -14 6 -6 3 7 2 16 -1 19 -3 4 -6 -2 -5 -13z"/>
<path d="M2736 3037 c3 -10 9 -15 12 -12 3 3 0 11 -7 18 -10 9 -11 8 -5 -6z"/>
<path d="M2770 3038 c0 -9 5 -20 10 -23 13 -8 13 5 0 25 -8 13 -10 13 -10 -2z"/>
<path d="M7690 3038 c0 -6 3 -8 7 -5 3 4 13 1 22 -6 14 -11 14 -10 2 6 -15 20
-31 22 -31 5z"/>
<path d="M2746 2998 c3 -5 10 -6 15 -3 13 9 11 12 -6 12 -8 0 -12 -4 -9 -9z"/>
<path d="M2790 2989 c0 -5 5 -7 10 -4 6 3 10 8 10 11 0 2 -4 4 -10 4 -5 0 -10
-5 -10 -11z"/>
<path d="M7676 2958 c3 -5 10 -6 15 -3 13 9 11 12 -6 12 -8 0 -12 -4 -9 -9z"/>
<path d="M7618 2948 c6 -6 18 -8 28 -6 14 3 12 5 -9 10 -19 3 -25 2 -19 -4z"/>
<path d="M7599 2933 c-1 -5 -1 -12 0 -17 1 -5 -6 -5 -16 -2 -9 4 -14 3 -9 -1
4 -4 19 -8 33 -8 21 -1 22 1 9 11 -9 6 -13 14 -9 17 3 4 3 7 0 7 -4 0 -8 -3
-8 -7z"/>
<path d="M2786 2922 c-3 -5 1 -9 9 -9 8 0 12 4 9 9 -3 4 -7 8 -9 8 -2 0 -6 -4
-9 -8z"/>
<path d="M2835 2901 c-3 -5 -2 -12 3 -15 5 -3 9 1 9 9 0 17 -3 19 -12 6z"/>
<path d="M7560 2888 c0 -9 7 -19 16 -22 15 -6 15 -4 3 11 -7 10 -15 20 -16 22
-2 2 -3 -3 -3 -11z"/>
<path d="M2860 2830 c-6 -11 -8 -20 -6 -20 3 0 10 9 16 20 6 11 8 20 6 20 -3
0 -10 -9 -16 -20z"/>
<path d="M7554 2843 c3 -3 -2 -12 -12 -20 -15 -12 -14 -13 8 -1 14 7 30 11 35
9 6 -1 6 1 2 5 -4 4 -15 9 -23 10 -9 1 -13 0 -10 -3z"/>
<path d="M2930 2801 c0 -5 7 -17 16 -26 9 -9 18 -14 21 -11 3 2 -5 14 -16 25
-12 12 -21 17 -21 12z"/>
<path d="M7586 2798 c3 -5 10 -6 15 -3 13 9 11 12 -6 12 -8 0 -12 -4 -9 -9z"/>
<path d="M2840 2775 c-19 -22 -8 -25 13 -3 9 10 13 18 8 18 -5 0 -14 -7 -21
-15z"/>
<path d="M2910 2780 c0 -5 5 -10 11 -10 5 0 7 5 4 10 -3 6 -8 10 -11 10 -2 0
-4 -4 -4 -10z"/>
<path d="M7489 2767 c-8 -14 -7 -22 2 -31 9 -8 10 -8 5 1 -10 18 4 45 19 33 8
-7 12 -6 12 3 0 21 -27 16 -38 -6z"/>
<path d="M2890 2745 c0 -7 30 -13 34 -7 3 4 -4 9 -15 9 -10 1 -19 0 -19 -2z"/>
<path d="M7450 2720 c0 -5 5 -10 10 -10 6 0 10 5 10 10 0 6 -4 10 -10 10 -5 0
-10 -4 -10 -10z"/>
<path d="M2970 2699 c0 -5 5 -7 10 -4 6 3 10 8 10 11 0 2 -4 4 -10 4 -5 0 -10
-5 -10 -11z"/>
<path d="M7486 2702 c-3 -5 1 -9 9 -9 8 0 12 4 9 9 -3 4 -7 8 -9 8 -2 0 -6 -4
-9 -8z"/>
<path d="M7401 2693 c-1 -6 -4 -20 -7 -30 -5 -17 -5 -17 6 0 6 10 9 23 6 30
-3 9 -5 9 -5 0z"/>
<path d="M2985 2680 c-3 -6 1 -7 9 -4 18 7 21 14 7 14 -6 0 -13 -4 -16 -10z"/>
<path d="M7415 2659 c-4 -6 -5 -12 -2 -15 2 -3 7 2 10 11 7 17 1 20 -8 4z"/>
<path d="M3033 2610 c-1 -11 1 -22 5 -24 4 -2 8 7 8 20 1 13 -1 24 -5 24 -4 0
-7 -9 -8 -20z"/>
<path d="M7410 2619 c0 -5 5 -7 10 -4 6 3 10 8 10 11 0 2 -4 4 -10 4 -5 0 -10
-5 -10 -11z"/>
<path d="M3060 2616 c0 -2 7 -9 15 -16 9 -7 15 -8 15 -2 0 5 -7 12 -15 16 -8
3 -15 4 -15 2z"/>
<path d="M3095 2580 c-3 -5 -2 -10 4 -10 5 0 13 5 16 10 3 6 2 10 -4 10 -5 0
-13 -4 -16 -10z"/>
<path d="M3130 2549 c7 -11 14 -19 16 -16 7 7 -7 37 -17 37 -6 0 -5 -9 1 -21z"/>
<path d="M3075 2511 c-3 -5 -2 -12 3 -15 5 -3 9 1 9 9 0 17 -3 19 -12 6z"/>
<path d="M3145 2509 c-4 -6 -5 -12 -2 -15 2 -3 7 2 10 11 7 17 1 20 -8 4z"/>
<path d="M3157 2481 c-4 -17 -3 -21 5 -13 5 5 8 16 6 23 -3 8 -7 3 -11 -10z"/>
<path d="M7270 2491 c0 -6 3 -11 8 -12 4 0 15 -2 24 -4 10 -2 20 0 23 5 3 5
-3 7 -12 5 -10 -1 -24 2 -30 8 -9 6 -13 6 -13 -2z"/>
<path d="M7225 2480 c-3 -5 -1 -10 4 -10 6 0 11 5 11 10 0 6 -2 10 -4 10 -3 0
-8 -4 -11 -10z"/>
<path d="M7255 2460 c3 -5 8 -10 11 -10 2 0 4 5 4 10 0 6 -5 10 -11 10 -5 0
-7 -4 -4 -10z"/>
<path d="M7181 2403 c7 -10 14 -19 15 -21 1 -2 4 4 8 13 3 9 2 13 -4 10 -6 -3
-10 -1 -10 4 0 6 -5 11 -11 11 -8 0 -7 -6 2 -17z"/>
<path d="M7250 2406 c0 -2 7 -7 16 -10 8 -3 12 -2 9 4 -6 10 -25 14 -25 6z"/>
<path d="M7151 2386 c-9 -10 -9 -16 -1 -21 6 -4 14 -4 17 -1 4 3 0 6 -8 6 -12
0 -12 2 1 10 8 5 12 12 9 15 -4 3 -12 -1 -18 -9z"/>
<path d="M3210 2380 c0 -5 5 -10 11 -10 5 0 7 5 4 10 -3 6 -8 10 -11 10 -2 0
-4 -4 -4 -10z"/>
<path d="M3235 2350 c-4 -6 -11 -7 -17 -4 -7 4 -8 2 -4 -4 7 -12 36 -5 36 9 0
12 -7 11 -15 -1z"/>
<path d="M3270 2339 c-12 -8 -10 -9 7 -4 17 5 21 3 18 -7 -3 -7 3 -18 14 -25
15 -10 20 -9 25 2 3 8 0 17 -6 21 -7 5 -8 2 -3 -6 5 -8 3 -11 -6 -8 -8 3 -14
11 -14 18 0 18 -17 22 -35 9z"/>
<path d="M7193 2335 c0 -8 4 -12 9 -9 5 3 6 10 3 15 -9 13 -12 11 -12 -6z"/>
<path d="M7159 2323 c-5 -36 -5 -62 -1 -58 7 7 12 65 6 65 -2 0 -4 -3 -5 -7z"/>
<path d="M3255 2300 c-3 -6 1 -7 9 -4 18 7 21 14 7 14 -6 0 -13 -4 -16 -10z"/>
<path d="M3341 2293 c-2 -19 11 -43 19 -38 6 4 21 -30 24 -57 1 -3 5 -10 10
-15 5 -4 6 -3 3 3 -4 7 0 15 9 18 13 5 14 9 4 21 -7 8 -16 12 -21 9 -5 -3 -9
2 -9 10 0 8 -6 19 -14 23 -7 4 -16 15 -19 23 -3 8 -6 10 -6 3z m64 -73 c3 -5
1 -10 -4 -10 -6 0 -11 5 -11 10 0 6 2 10 4 10 3 0 8 -4 11 -10z"/>
<path d="M7070 2276 c0 -8 4 -18 10 -21 6 -4 7 1 3 11 -5 13 -3 15 7 9 9 -5
11 -4 6 3 -10 17 -26 15 -26 -2z"/>
<path d="M7106 2263 c-6 -14 -5 -15 5 -6 7 7 10 15 7 18 -3 3 -9 -2 -12 -12z"/>
<path d="M3290 2261 c0 -6 4 -13 10 -16 6 -3 7 1 4 9 -7 18 -14 21 -14 7z"/>
<path d="M3310 2266 c0 -2 7 -7 16 -10 8 -3 12 -2 9 4 -6 10 -25 14 -25 6z"/>
<path d="M7120 2240 c-9 -6 -10 -10 -3 -10 6 0 15 5 18 10 8 12 4 12 -15 0z"/>
<path d="M3335 2229 c-4 -6 -5 -12 -2 -15 2 -3 7 2 10 11 7 17 1 20 -8 4z"/>
<path d="M3386 2162 c-3 -5 1 -9 9 -9 8 0 12 4 9 9 -3 4 -7 8 -9 8 -2 0 -6 -4
-9 -8z"/>
<path d="M6956 2162 c-2 -4 4 -13 15 -20 22 -14 25 -7 5 14 -8 8 -17 11 -20 6z"/>
<path d="M7055 2149 c-4 -6 -5 -12 -2 -15 2 -3 7 2 10 11 7 17 1 20 -8 4z"/>
<path d="M3434 2115 c-4 -8 -11 -12 -17 -8 -6 3 -7 1 -3 -5 9 -15 9 -15 29 8
9 11 12 20 7 20 -6 0 -13 -7 -16 -15z"/>
<path d="M6970 2110 c6 -11 13 -20 16 -20 2 0 0 9 -6 20 -6 11 -13 20 -16 20
-2 0 0 -9 6 -20z"/>
<path d="M6953 2091 c0 -11 5 -18 9 -15 4 3 5 11 1 19 -7 21 -12 19 -10 -4z"/>
<path d="M6906 2078 c3 -5 9 -6 14 -3 4 3 11 -1 13 -7 4 -8 6 -7 6 4 1 11 -6
16 -18 15 -11 0 -17 -5 -15 -9z"/>
<path d="M3468 2063 c6 -2 18 -2 25 0 6 3 1 5 -13 5 -14 0 -19 -2 -12 -5z"/>
<path d="M6970 2059 c0 -5 5 -7 10 -4 6 3 10 8 10 11 0 2 -4 4 -10 4 -5 0 -10
-5 -10 -11z"/>
<path d="M3510 2050 c0 -5 5 -10 10 -10 6 0 10 5 10 10 0 6 -4 10 -10 10 -5 0
-10 -4 -10 -10z"/>
<path d="M6815 1990 c-3 -5 -1 -10 4 -10 6 0 11 5 11 10 0 6 -2 10 -4 10 -3 0
-8 -4 -11 -10z"/>
<path d="M6930 1981 c0 -6 4 -13 10 -16 6 -3 7 1 4 9 -7 18 -14 21 -14 7z"/>
<path d="M3585 1959 c-11 -16 -1 -19 13 -3 7 8 8 14 3 14 -5 0 -13 -5 -16 -11z"/>
<path d="M6835 1960 c3 -5 8 -10 11 -10 2 0 4 5 4 10 0 6 -5 10 -11 10 -5 0
-7 -4 -4 -10z"/>
<path d="M3548 1943 c7 -3 16 -2 19 1 4 3 -2 6 -13 5 -11 0 -14 -3 -6 -6z"/>
<path d="M6839 1938 c-5 -18 -6 -38 -1 -34 7 8 12 36 6 36 -2 0 -4 -1 -5 -2z"/>
<path d="M3555 1920 c-3 -5 -1 -10 4 -10 6 0 11 5 11 10 0 6 -2 10 -4 10 -3 0
-8 -4 -11 -10z"/>
<path d="M6778 1908 c6 -6 18 -8 28 -6 14 3 12 5 -9 10 -19 3 -25 2 -19 -4z"/>
<path d="M6744 1899 c-4 -7 -3 -9 4 -5 5 3 13 0 15 -6 4 -9 6 -10 6 -1 1 17
-16 25 -25 12z"/>
<path d="M3595 1880 c-3 -5 -1 -10 4 -10 6 0 11 5 11 10 0 6 -2 10 -4 10 -3 0
-8 -4 -11 -10z"/>
<path d="M6760 1865 c0 -2 6 -8 13 -14 10 -8 14 -7 14 2 0 8 -6 14 -14 14 -7
0 -13 -1 -13 -2z"/>
<path d="M6805 1860 c-3 -6 1 -7 9 -4 18 7 21 14 7 14 -6 0 -13 -4 -16 -10z"/>
<path d="M3690 1849 c0 -5 -4 -7 -10 -4 -5 3 -10 1 -10 -4 0 -16 16 -13 30 4
9 10 9 15 1 15 -6 0 -11 -5 -11 -11z"/>
<path d="M6682 1824 c-14 -16 -5 -18 17 -5 7 5 9 11 5 14 -5 3 -15 -1 -22 -9z"/>
<path d="M6770 1819 c0 -5 5 -7 10 -4 6 3 10 8 10 11 0 2 -4 4 -10 4 -5 0 -10
-5 -10 -11z"/>
<path d="M3780 1760 c0 -5 5 -10 11 -10 5 0 7 5 4 10 -3 6 -8 10 -11 10 -2 0
-4 -4 -4 -10z"/>
<path d="M6670 1762 c0 -4 9 -8 20 -9 11 -1 20 2 20 5 0 4 -9 8 -20 9 -11 1
-20 -2 -20 -5z"/>
<path d="M6607 1734 c-3 -3 -3 -13 0 -22 4 -10 2 -13 -5 -8 -7 4 -12 3 -12 -2
0 -5 14 -9 30 -8 17 0 30 5 30 9 0 5 -7 6 -16 3 -12 -4 -15 -2 -11 9 6 15 -6
29 -16 19z"/>
<path d="M6716 1718 c3 -5 10 -6 15 -3 13 9 11 12 -6 12 -8 0 -12 -4 -9 -9z"/>
<path d="M3780 1698 c-12 -8 -11 -9 4 -4 13 5 17 2 13 -9 -4 -8 -3 -16 1 -19
4 -3 8 4 9 14 2 25 -9 32 -27 18z"/>
<path d="M3820 1678 c0 -4 6 -8 14 -8 8 0 17 4 20 8 2 4 -4 8 -15 8 -10 0 -19
-4 -19 -8z"/>
<path d="M6670 1686 c0 -2 7 -7 16 -10 8 -3 12 -2 9 4 -6 10 -25 14 -25 6z"/>
<path d="M6608 1673 c6 -2 9 -10 6 -15 -4 -7 -2 -8 5 -4 13 9 5 26 -12 25 -9
0 -8 -2 1 -6z"/>
<path d="M3854 1659 c-4 -8 -3 -10 4 -5 12 7 14 1 15 -41 0 -12 3 -20 8 -17 4
2 5 12 2 22 -5 16 -4 16 13 -1 17 -15 17 -19 4 -28 -12 -9 -12 -10 -1 -7 25 7
23 23 -8 57 -20 23 -31 29 -37 20z"/>
<path d="M3790 1639 c0 -5 5 -7 10 -4 6 3 10 8 10 11 0 2 -4 4 -10 4 -5 0 -10
-5 -10 -11z"/>
<path d="M6532 1638 c2 -6 10 -13 16 -14 7 -1 8 0 2 3 -5 2 -8 9 -4 14 3 5 0
9 -6 9 -7 0 -10 -5 -8 -12z"/>
<path d="M6570 1640 c0 -5 5 -10 10 -10 6 0 10 5 10 10 0 6 -4 10 -10 10 -5 0
-10 -4 -10 -10z"/>
<path d="M3789 1603 c-13 -16 -12 -17 4 -4 16 13 21 21 13 21 -2 0 -10 -8 -17
-17z"/>
<path d="M3873 1566 c0 -15 22 -15 34 0 4 5 4 6 -1 2 -5 -4 -14 -3 -21 2 -8 7
-12 5 -12 -4z"/>
<path d="M6525 1560 c3 -5 8 -10 11 -10 2 0 4 5 4 10 0 6 -5 10 -11 10 -5 0
-7 -4 -4 -10z"/>
<path d="M3950 1540 c0 -5 7 -7 15 -4 8 4 15 8 15 10 0 2 -7 4 -15 4 -8 0 -15
-4 -15 -10z"/>
<path d="M3936 1517 c3 -10 9 -15 12 -12 3 3 0 11 -7 18 -10 9 -11 8 -5 -6z"/>
<path d="M6416 1515 c-9 -26 -7 -32 5 -12 6 10 9 21 6 23 -2 3 -7 -2 -11 -11z"/>
<path d="M6450 1518 c0 -4 4 -8 9 -8 6 0 12 4 15 8 3 5 -1 9 -9 9 -8 0 -15 -4
-15 -9z"/>
<path d="M6490 1521 c0 -6 4 -13 10 -16 6 -3 7 1 4 9 -7 18 -14 21 -14 7z"/>
<path d="M4010 1500 c0 -5 5 -10 11 -10 5 0 7 5 4 10 -3 6 -8 10 -11 10 -2 0
-4 -4 -4 -10z"/>
<path d="M3982 1487 c10 -8 15 -17 11 -20 -3 -4 -1 -7 5 -7 20 0 13 19 -10 30
-21 10 -21 10 -6 -3z"/>
<path d="M6390 1491 c0 -10 19 -25 25 -20 1 2 -3 10 -11 17 -8 7 -14 8 -14 3z"/>
<path d="M6434 1470 c3 -42 12 -46 12 -5 0 19 -3 35 -7 35 -4 0 -6 -13 -5 -30z"/>
<path d="M6480 1475 c-7 -9 -11 -17 -9 -20 3 -2 10 5 17 15 14 24 10 26 -8 5z"/>
<path d="M4029 1433 c12 -8 25 -12 28 -9 4 3 1 6 -6 6 -7 0 -10 4 -7 8 2 4 -5
9 -16 9 -21 2 -21 2 1 -14z"/>
<path d="M3976 1422 c-3 -5 1 -9 9 -9 8 0 12 4 9 9 -3 4 -7 8 -9 8 -2 0 -6 -4
-9 -8z"/>
<path d="M4010 1420 c0 -5 5 -10 11 -10 5 0 7 5 4 10 -3 6 -8 10 -11 10 -2 0
-4 -4 -4 -10z"/>
<path d="M6350 1400 c0 -6 7 -10 15 -10 8 0 15 2 15 4 0 2 -7 6 -15 10 -8 3
-15 1 -15 -4z"/>
<path d="M6310 1390 c0 -5 7 -10 15 -10 9 0 12 -6 9 -15 -4 -8 -2 -15 4 -15 6
0 9 7 8 16 -3 19 -36 41 -36 24z"/>
<path d="M4060 1380 c-8 -5 -10 -10 -5 -10 6 0 17 5 25 10 8 5 11 10 5 10 -5
0 -17 -5 -25 -10z"/>
<path d="M4075 1360 c-3 -5 -1 -10 4 -10 6 0 11 5 11 10 0 6 -2 10 -4 10 -3 0
-8 -4 -11 -10z"/>
<path d="M6265 1349 c-4 -6 -5 -12 -2 -15 2 -3 7 2 10 11 7 17 1 20 -8 4z"/>
<path d="M6305 1345 c11 -9 19 -19 18 -23 -1 -4 0 -9 2 -10 2 -2 2 4 1 13 -1
10 -11 22 -22 27 -18 9 -17 8 1 -7z"/>
<path d="M4142 1336 c10 -7 15 -16 11 -19 -3 -4 -1 -7 5 -7 7 0 12 4 12 8 0
12 -22 32 -34 32 -6 0 -3 -7 6 -14z"/>
<path d="M6280 1335 c0 -5 5 -17 10 -25 5 -8 10 -10 10 -5 0 6 -5 17 -10 25
-5 8 -10 11 -10 5z"/>
<path d="M4116 1322 c-3 -5 1 -9 9 -9 8 0 12 4 9 9 -3 4 -7 8 -9 8 -2 0 -6 -4
-9 -8z"/>
<path d="M6340 1326 c0 -2 8 -10 18 -17 15 -13 16 -12 3 4 -13 16 -21 21 -21
13z"/>
<path d="M6220 1316 c0 -2 7 -9 15 -16 9 -7 15 -8 15 -2 0 5 -7 12 -15 16 -8
3 -15 4 -15 2z"/>
<path d="M4047 1279 c7 -7 15 -10 18 -7 3 3 -2 9 -12 12 -14 6 -15 5 -6 -5z"/>
<path d="M6266 1278 c3 -5 10 -6 15 -3 13 9 11 12 -6 12 -8 0 -12 -4 -9 -9z"/>
<path d="M4135 1271 c-3 -5 0 -13 6 -17 7 -4 9 -3 5 4 -3 6 3 12 16 15 23 4
23 4 1 6 -12 0 -24 -3 -28 -8z"/>
<path d="M4200 1270 c-8 -5 -11 -13 -6 -17 5 -4 11 -2 13 5 3 6 10 9 15 6 7
-4 8 -2 4 4 -9 14 -7 14 -26 2z"/>
<path d="M6188 1274 c-8 -8 3 -44 14 -44 5 0 4 9 -2 20 -7 14 -7 20 0 20 5 0
10 -4 10 -10 0 -5 5 -10 11 -10 8 0 8 5 -1 15 -13 16 -23 19 -32 9z"/>
<path d="M6295 1260 c3 -5 8 -10 11 -10 2 0 4 5 4 10 0 6 -5 10 -11 10 -5 0
-7 -4 -4 -10z"/>
<path d="M4215 1240 c-3 -5 -2 -10 4 -10 5 0 13 5 16 10 3 6 2 10 -4 10 -5 0
-13 -4 -16 -10z"/>
<path d="M6159 1233 c-11 -13 -11 -17 -1 -20 6 -3 12 -12 13 -21 0 -13 2 -13
8 3 5 11 5 25 0 31 -5 6 -6 14 -2 17 3 4 4 7 1 7 -3 0 -12 -7 -19 -17z"/>
<path d="M4193 1205 c0 -8 4 -15 9 -15 4 0 8 4 8 9 0 6 -4 12 -8 15 -5 3 -9
-1 -9 -9z"/>
<path d="M4220 1216 c0 -2 7 -6 15 -10 8 -3 15 -1 15 4 0 6 -7 10 -15 10 -8 0
-15 -2 -15 -4z"/>
<path d="M6193 1185 c0 -8 4 -12 9 -9 5 3 6 10 3 15 -9 13 -12 11 -12 -6z"/>
<path d="M6153 1173 c0 -11 7 -20 14 -20 10 0 10 4 1 16 -7 9 -13 18 -15 20
-1 2 -1 -5 0 -16z"/>
<path d="M4190 1160 c0 -5 5 -10 11 -10 5 0 7 5 4 10 -3 6 -8 10 -11 10 -2 0
-4 -4 -4 -10z"/>
<path d="M6060 1141 c-5 -11 -7 -27 -4 -36 6 -14 9 -13 22 6 11 16 12 23 2 29
-10 6 -9 9 1 13 9 4 10 6 2 6 -7 1 -17 -8 -23 -18z m20 -15 c0 -3 -4 -8 -10
-11 -5 -3 -10 -1 -10 4 0 6 5 11 10 11 6 0 10 -2 10 -4z"/>
<path d="M4250 1145 c0 -5 5 -17 10 -25 5 -8 10 -10 10 -5 0 6 -5 17 -10 25
-5 8 -10 11 -10 5z"/>
<path d="M4270 1146 c0 -2 7 -7 16 -10 8 -3 12 -2 9 4 -6 10 -25 14 -25 6z"/>
<path d="M6150 1120 c0 -5 5 -10 11 -10 5 0 7 5 4 10 -3 6 -8 10 -11 10 -2 0
-4 -4 -4 -10z"/>
<path d="M4350 1110 c0 -5 5 -10 11 -10 5 0 7 5 4 10 -3 6 -8 10 -11 10 -2 0
-4 -4 -4 -10z"/>
<path d="M4362 1083 c11 -3 15 -10 11 -21 -5 -13 -3 -14 7 -5 15 14 5 33 -18
32 -16 -1 -16 -2 0 -6z"/>
<path d="M6019 1083 c-6 -39 -7 -64 -3 -60 8 8 16 67 10 67 -3 0 -7 -3 -7 -7z"/>
<path d="M6076 1073 c-4 -9 -3 -20 1 -24 4 -4 9 3 9 17 2 28 -1 31 -10 7z"/>
<path d="M5987 1064 c-3 -3 -3 -12 0 -20 3 -8 0 -14 -7 -14 -7 0 -10 -6 -7
-14 7 -16 -23 -32 -32 -17 -4 5 -17 -6 -30 -25 -13 -19 -21 -37 -18 -41 4 -3
10 3 13 13 13 36 25 44 46 33 12 -7 18 -7 14 -1 -3 5 1 13 10 16 8 3 13 10 9
15 -3 5 -1 12 4 16 5 3 9 14 8 25 -1 22 -1 22 -10 14z"/>
<path d="M4347 1039 c7 -7 15 -10 18 -7 3 3 -2 9 -12 12 -14 6 -15 5 -6 -5z"/>
<path d="M4395 1040 c3 -5 11 -10 16 -10 6 0 7 5 4 10 -3 6 -11 10 -16 10 -6
0 -7 -4 -4 -10z"/>
<path d="M4430 1040 c0 -5 5 -10 11 -10 5 0 7 5 4 10 -3 6 -8 10 -11 10 -2 0
-4 -4 -4 -10z"/>
<path d="M4387 1019 c7 -7 15 -10 18 -7 3 3 -2 9 -12 12 -14 6 -15 5 -6 -5z"/>
<path d="M6050 1019 c0 -5 5 -7 10 -4 6 3 10 8 10 11 0 2 -4 4 -10 4 -5 0 -10
-5 -10 -11z"/>
<path d="M4421 1013 c-1 -6 -4 -20 -7 -30 -5 -17 -5 -17 6 0 6 10 9 23 6 30
-3 9 -5 9 -5 0z"/>
<path d="M4438 992 c-3 -11 0 -19 7 -19 7 0 10 8 7 19 -2 10 -6 18 -7 18 -1 0
-5 -8 -7 -18z"/>
<path d="M4470 990 c0 -5 5 -10 11 -10 5 0 7 5 4 10 -3 6 -8 10 -11 10 -2 0
-4 -4 -4 -10z"/>
<path d="M5925 953 c-10 -26 -17 -69 -10 -62 3 4 7 16 10 28 6 31 15 42 27 35
7 -4 8 -2 4 4 -10 17 -23 15 -31 -5z"/>
<path d="M4495 940 c-3 -5 -2 -10 4 -10 5 0 13 5 16 10 3 6 2 10 -4 10 -5 0
-13 -4 -16 -10z"/>
<path d="M5970 939 c0 -5 5 -7 10 -4 6 3 10 8 10 11 0 2 -4 4 -10 4 -5 0 -10
-5 -10 -11z"/>
<path d="M4467 927 c-3 -8 1 -14 8 -14 7 0 11 6 8 14 -3 7 -6 13 -8 13 -2 0
-5 -6 -8 -13z"/>
<path d="M4524 925 c-4 -8 -11 -12 -17 -8 -6 3 -7 1 -3 -5 10 -16 14 -15 26 8
6 11 8 20 5 20 -3 0 -8 -7 -11 -15z"/>
<path d="M5940 926 c0 -2 8 -10 18 -17 15 -13 16 -12 3 4 -13 16 -21 21 -21
13z"/>
<path d="M5886 907 c3 -10 9 -15 12 -12 3 3 0 11 -7 18 -10 9 -11 8 -5 -6z"/>
<path d="M4555 900 c-3 -5 -1 -10 4 -10 6 0 11 5 11 10 0 6 -2 10 -4 10 -3 0
-8 -4 -11 -10z"/>
<path d="M5870 891 c0 -10 19 -25 25 -20 1 2 -3 10 -11 17 -8 7 -14 8 -14 3z"/>
<path d="M5817 873 c-4 -7 -3 -49 2 -62 2 -7 31 22 31 32 0 6 -6 2 -14 -8 -13
-18 -13 -17 -13 8 0 16 4 24 10 20 6 -3 7 -1 3 5 -8 14 -13 15 -19 5z"/>
<path d="M4514 836 c1 -8 5 -18 8 -22 4 -3 5 1 4 10 -1 8 -5 18 -8 22 -4 3 -5
-1 -4 -10z"/>
<path d="M5757 783 c-11 -11 -8 -20 7 -20 8 0 12 6 9 14 -6 15 -7 15 -16 6z"/>
<path d="M5673 724 c0 -16 13 -19 21 -5 3 5 0 11 -7 14 -8 3 -14 -1 -14 -9z"/>
<path d="M4674 713 c2 -10 -2 -25 -8 -33 -9 -13 -9 -13 6 -2 16 12 18 35 6 48
-4 3 -5 -2 -4 -13z"/>
<path d="M4705 720 c-3 -5 -1 -10 4 -10 6 0 11 5 11 10 0 6 -2 10 -4 10 -3 0
-8 -4 -11 -10z"/>
<path d="M4729 703 c-12 -14 -12 -16 0 -8 11 6 13 4 8 -8 -3 -10 -3 -17 2 -17
12 0 21 39 11 45 -4 3 -14 -3 -21 -12z"/>
<path d="M5667 676 c10 -13 19 -23 21 -21 5 5 -22 45 -31 45 -4 0 0 -11 10
-24z"/>
<path d="M5622 670 c-7 -11 -8 -20 -3 -20 5 0 11 6 14 13 4 10 7 10 18 0 10
-10 10 -13 0 -13 -7 0 -9 -4 -6 -10 9 -15 22 -12 22 5 0 8 -8 22 -17 30 -14
13 -17 12 -28 -5z"/>
<path d="M4710 671 c0 -7 -5 -9 -12 -5 -7 5 -8 3 -3 -5 5 -9 10 -10 18 -2 6 6
8 14 4 18 -4 3 -7 1 -7 -6z"/>
<path d="M5706 658 c3 -5 10 -6 15 -3 13 9 11 12 -6 12 -8 0 -12 -4 -9 -9z"/>
<path d="M5585 636 c-23 -25 -26 -40 -4 -19 12 12 21 24 18 27 -2 2 -9 -1 -14
-8z"/>
<path d="M4804 631 c4 -6 16 -16 28 -22 15 -8 18 -8 14 0 -4 6 -16 16 -28 22
-15 8 -18 8 -14 0z"/>
<path d="M5611 633 c-1 -17 16 -25 25 -12 4 7 3 9 -4 5 -5 -3 -13 0 -15 6 -4
9 -6 10 -6 1z"/>
<path d="M4730 625 c0 -5 5 -17 10 -25 5 -8 10 -10 10 -5 0 6 -5 17 -10 25 -5
8 -10 11 -10 5z"/>
<path d="M4790 612 c0 -5 11 -14 25 -20 14 -6 25 -10 25 -8 0 2 -11 11 -25 20
-14 9 -25 13 -25 8z"/>
<path d="M5525 580 c-7 -12 2 -30 16 -30 5 0 9 5 9 11 0 5 -5 7 -12 3 -8 -5
-9 -2 -5 9 7 19 2 23 -8 7z"/>
<path d="M4822 564 c10 -10 20 -16 22 -13 3 3 -5 11 -17 18 -21 13 -21 12 -5
-5z"/>
<path d="M4793 547 c0 -7 9 -14 20 -14 11 -1 18 -1 16 0 -2 2 -11 8 -20 15
-12 9 -16 9 -16 -1z"/>
<path d="M5555 540 c-3 -5 -1 -10 4 -10 6 0 11 5 11 10 0 6 -2 10 -4 10 -3 0
-8 -4 -11 -10z"/>
<path d="M4917 510 c-9 -11 -13 -20 -7 -20 5 0 14 9 20 20 6 11 9 20 8 20 -2
0 -11 -9 -21 -20z"/>
<path d="M5517 509 c7 -7 15 -10 18 -7 3 3 -2 9 -12 12 -14 6 -15 5 -6 -5z"/>
<path d="M4945 501 c3 -5 0 -11 -7 -13 -8 -3 -4 -12 10 -26 12 -12 22 -18 22
-14 0 4 -6 14 -12 20 -10 10 -10 15 0 21 11 7 10 10 -3 14 -9 4 -14 3 -10 -2z"/>
<path d="M5423 478 c-7 -9 -4 -19 9 -30 10 -10 18 -14 18 -9 0 6 -5 13 -11 16
-6 4 -8 13 -5 21 7 17 2 18 -11 2z"/>
<path d="M5495 480 c-3 -5 -1 -10 4 -10 6 0 11 5 11 10 0 6 -2 10 -4 10 -3 0
-8 -4 -11 -10z"/>
<path d="M4990 448 c0 -16 -11 -23 -32 -19 -5 0 -8 -3 -8 -9 0 -13 10 -12 37
3 16 9 20 16 13 27 -8 13 -10 12 -10 -2z"/>
<path d="M5450 416 c0 -2 8 -10 18 -17 15 -13 16 -12 3 4 -13 16 -21 21 -21
13z"/>
<path d="M4991 397 c-1 -11 -6 -15 -13 -11 -7 5 -8 3 -3 -5 10 -16 29 2 22 21
-4 8 -6 7 -6 -5z"/>
<path d="M5325 384 c-11 -8 -19 -20 -17 -25 1 -5 -2 -9 -8 -9 -5 0 -10 -5 -10
-11 0 -8 4 -8 14 0 11 9 20 10 38 1 22 -11 22 -11 3 5 -16 13 -18 19 -7 35 15
24 13 24 -13 4z"/>
<path d="M5395 380 c-3 -5 -1 -10 4 -10 6 0 11 5 11 10 0 6 -2 10 -4 10 -3 0
-8 -4 -11 -10z"/>
<path d="M5350 370 c0 -5 7 -7 15 -4 8 4 15 8 15 10 0 2 -7 4 -15 4 -8 0 -15
-4 -15 -10z"/>
<path d="M5033 355 c0 -8 4 -12 9 -9 4 3 8 9 8 15 0 5 -4 9 -8 9 -5 0 -9 -7
-9 -15z"/>
<path d="M5430 366 c0 -2 7 -7 16 -10 8 -3 12 -2 9 4 -6 10 -25 14 -25 6z"/>
<path d="M5106 337 c3 -10 9 -15 12 -12 3 3 0 11 -7 18 -10 9 -11 8 -5 -6z"/>
<path d="M5373 327 c0 -8 6 -14 14 -14 9 0 10 4 2 14 -6 7 -12 13 -14 13 -1 0
-2 -6 -2 -13z"/>
<path d="M5260 328 c0 -2 9 -11 20 -21 11 -9 20 -13 20 -7 0 5 -9 14 -20 20
-11 6 -20 9 -20 8z"/>
<path d="M5313 310 c1 -11 5 -20 9 -20 3 0 6 9 5 20 -1 11 -5 20 -9 20 -3 0
-6 -9 -5 -20z"/>
<path d="M5436 318 c3 -5 10 -6 15 -3 13 9 11 12 -6 12 -8 0 -12 -4 -9 -9z"/>
<path d="M5110 301 c0 -6 4 -12 8 -15 5 -3 9 1 9 9 0 8 -4 15 -9 15 -4 0 -8
-4 -8 -9z"/>
<path d="M5144 299 c-5 -8 -3 -9 6 -4 10 6 12 4 7 -8 -3 -10 -2 -17 3 -17 13
0 13 27 1 35 -5 3 -13 0 -17 -6z"/>
<path d="M5267 287 c-3 -8 1 -14 8 -14 7 0 11 6 8 14 -6 16 -10 16 -16 0z"/>
<path d="M5217 235 c-4 -8 -3 -16 1 -19 4 -3 9 4 9 15 2 23 -3 25 -10 4z"/>
</g>
</svg>
